<?xml version="1.0" encoding="UTF-8" ?>
<svg version="1.1" viewBox="0 0 4445.3 7112" xmlns="http://www.w3.org/2000/svg" xmlns:xlink="http://www.w3.org/1999/xlink">
    <g id="body" transform="matrix(1,0,0,1,-0.103039,-4.63674)">
        <g id="shirt_shadow" transform="matrix(1,0,0,1,-13.1987,0.359959)">
            <path d="M288.862,922.818C291.146,926.878 292.903,938.633 299.886,947.63C309.149,959.565 313.199,963.611 322.124,972.109C328.674,978.346 337.107,985.097 345.181,990.822C353.495,996.717 363.54,1003.16 372.005,1007.48C383.472,1013.32 396.197,1018.96 413.862,1016C425.575,1014.03 440.47,1008.06 453.13,1001.59C466.04,994.991 475.677,987.423 485.934,979.371C493.731,973.249 505.349,959.967 511.35,951.082C516.418,943.577 521.668,925.936 521.936,926.062C522.258,926.214 533.089,932.349 538.391,934.159C545.939,936.736 561.193,942.771 572.705,945.799C584.105,948.798 595.88,950.125 607.46,952.33C621.359,954.976 640.064,957.745 656.099,961.676C672.877,965.789 696.093,968.736 708.133,977.008C719.071,984.522 724.425,1000.56 728.343,1011.31C731.811,1020.82 731.267,1032.67 731.643,1041.51C731.966,1049.11 732.041,1056.84 730.598,1064.31C728.993,1072.61 727.422,1084.58 722.015,1091.33C716.607,1098.07 706.694,1101.55 698.154,1104.78C687.28,1108.9 670.778,1113.16 656.774,1116.02C641.475,1119.14 623.27,1121.86 606.36,1123.5C589.177,1125.17 570.127,1125.94 553.672,1126.03C538.31,1126.11 522.576,1125.88 507.629,1124.01C492.88,1122.17 478.211,1118.46 463.992,1114.83C449.93,1111.24 434.405,1106.77 422.318,1102.21C411.656,1098.19 401.603,1092.17 391.47,1087.49C381.543,1082.9 371.741,1077.98 361.517,1074.1C351.249,1070.2 340.365,1066.75 329.858,1064.09C319.538,1061.47 309.045,1059.45 298.48,1058.13C286.748,1056.68 272.502,1055.48 259.464,1055.34C243.891,1055.17 220.381,1055.88 205.042,1057.13C192.402,1058.15 179.776,1059.94 167.428,1062.83C152.79,1066.25 125.147,1074.32 117.212,1077.67C112.525,1079.64 95.488,1083.34 89.828,1086.41C84.078,1089.54 80.045,1082.18 77.736,1078.92C73.154,1072.46 77.852,1044.28 80.436,1030.9C82.63,1019.53 86.781,1008.23 93.242,998.629C99.793,988.895 109.268,979.146 119.74,972.493C130.883,965.414 146.686,960.16 160.099,956.156C173.148,952.261 187.704,951.362 200.221,948.469C212.007,945.745 223.578,942.16 235.198,938.798C249.972,934.523 288.728,922.58 288.862,922.818Z" style="fill:rgb(209,180,140);stroke:rgb(9,46,93);stroke-opacity:0;stroke-width:78.66px;"/>
        </g>
        <g id="shoulders" transform="matrix(1,0,0,1,0.103039,4.63674)">
            <path d="M494.417,903.172C494.42,903.309 494.437,903.448 494.47,903.586C495.644,908.552 497.584,914.342 496.892,919.493C496.147,925.033 492.756,930.095 489.772,934.659C482.278,946.123 472.66,955.084 462.187,963.749C440.843,981.409 413.143,999.408 384.347,998.624C373.384,998.326 363.273,993.997 353.501,989.455C333.35,980.09 314.167,967.07 298.377,951.365C290.867,943.897 281.148,933.614 279.048,922.813C278.285,918.889 278.926,915.474 280.033,912.146C281.244,908.504 282.993,904.96 284.31,901.055C284.322,901.019 284.333,900.982 284.343,900.946C284.813,899.938 285.23,898.839 285.598,897.69C286.843,893.811 287.582,889.358 288.319,886.507C291.922,872.561 295.277,858.553 298.939,844.622C299.22,843.555 298.581,842.46 297.513,842.18C296.446,841.899 295.351,842.538 295.07,843.605C291.407,857.541 288.051,871.555 284.446,885.507C283.724,888.301 283.01,892.666 281.79,896.468C281.077,898.689 280.225,900.72 278.992,901.95C277.621,903.317 275.485,904.254 273.279,905.079C270.762,906.02 268.137,906.783 266.137,907.62C254.152,912.638 241.717,916.447 229.328,920.306C206.494,927.419 182.793,931.732 159.307,936.041C143.765,938.893 127.727,940.841 113.207,947.45C90.125,957.955 72.594,977.697 62.759,1000.87C58.336,1011.29 55.632,1022.52 54.46,1033.77C54.346,1034.87 55.145,1035.85 56.242,1035.96C57.34,1036.08 58.325,1035.28 58.439,1034.18C59.57,1023.33 62.173,1012.49 66.442,1002.43C75.888,980.175 92.693,961.181 114.864,951.09C129.084,944.618 144.807,942.769 160.029,939.976C183.672,935.637 207.531,931.286 230.517,924.125C243.027,920.228 255.58,916.376 267.682,911.31C270.057,910.316 273.325,909.43 276.229,908.214C276.634,908.045 277.032,907.868 277.421,907.685C276.995,908.751 276.593,909.813 276.237,910.883C274.92,914.843 274.214,918.909 275.121,923.576C277.364,935.109 287.538,946.226 295.556,954.201C311.673,970.23 331.248,983.524 351.815,993.083C362.078,997.852 372.724,1002.31 384.238,1002.62C413.98,1003.43 442.692,985.071 464.737,966.83C475.522,957.907 485.402,948.654 493.12,936.848C496.417,931.804 500.033,926.149 500.856,920.026C501.369,916.211 500.625,912.065 499.693,908.102C512.503,916.042 530.376,920.376 544.342,923.857C567.892,929.726 591.632,934.023 615.418,938.814C628.854,941.521 642.79,943.275 655.699,948.056C680.997,957.426 701.288,976.625 711.104,1001.85C715.159,1012.27 716.5,1022.67 716.675,1033.79C716.692,1034.89 717.602,1035.77 718.706,1035.76C719.81,1035.74 720.692,1034.83 720.674,1033.72C720.492,1022.12 719.063,1011.28 714.832,1000.4C704.599,974.103 683.461,954.073 657.088,944.305C643.985,939.452 629.846,937.641 616.208,934.893C592.482,930.113 568.801,925.83 545.309,919.976C530.509,916.287 511.143,911.724 498.641,902.58C498.298,902.328 498.175,901.841 498.017,901.368C497.717,900.467 497.515,899.502 497.257,898.767C495.88,894.837 494.454,890.92 492.965,887.031C486.779,870.886 482.939,854.23 477.31,837.927C476.949,836.883 475.81,836.329 474.766,836.689C473.723,837.049 473.168,838.189 473.529,839.232C479.173,855.578 483.027,872.275 489.229,888.462C490.705,892.315 492.118,896.195 493.482,900.089C493.786,900.958 494.018,902.141 494.417,903.172ZM415.32,912.404C400.765,926.926 374.89,927.112 360.521,912.514C359.746,911.727 358.479,911.717 357.692,912.492C356.906,913.266 356.896,914.533 357.67,915.32C373.527,931.429 402.083,931.262 418.145,915.236C418.927,914.456 418.928,913.189 418.149,912.407C417.369,911.626 416.102,911.624 415.32,912.404Z" style="fill:rgb(107,78,49);"/>
        </g>
        <g id="chin_shadow" transform="matrix(0.999923,0.0124385,-0.0137054,1.10177,10.6597,-94.9452)">
            <path d="M462.095,850.159C462.512,850.047 460.906,856.952 459.595,860.111C458.272,863.298 456.5,866.606 454.158,869.277C451.423,872.397 447.183,876.084 443.186,878.83C439.015,881.695 433.469,884.552 429.134,886.469C425.304,888.162 421.235,889.286 417.178,890.328C412.852,891.439 407.899,892.536 403.177,893.136C398.272,893.76 392.848,894.018 387.749,894.07C382.689,894.122 377.336,893.973 372.581,893.448C368.075,892.951 363.452,891.975 359.219,890.92C355.137,889.902 351.017,888.534 347.184,887.116C343.454,885.736 339.31,884.065 336.22,882.411C333.515,880.964 331.008,879.142 328.641,877.19C326.089,875.087 323.1,872.246 320.909,869.791C318.887,867.526 316.711,864.626 315.495,862.464C314.522,860.736 313.618,856.986 313.612,856.822C313.605,856.652 320.895,859.849 324.606,861.18C328.398,862.541 332.686,863.896 336.367,864.988C339.78,866 343.2,867.02 346.688,867.731C350.601,868.528 355.633,869.371 359.842,869.772C363.859,870.154 368.116,870.067 371.94,870.132C375.555,870.194 379.172,870.238 382.786,870.165C386.421,870.091 390.107,870.027 393.75,869.691C397.629,869.333 401.978,868.705 406.062,868.017C410.226,867.316 414.55,866.496 418.738,865.482C423.103,864.426 428.166,862.904 432.256,861.679C435.954,860.571 439.615,859.433 443.279,858.13C446.694,856.916 451.141,855.338 454.277,854.009C456.951,852.876 461.681,850.27 462.095,850.159Z" style="fill:rgb(209,180,140);"/>
        </g>
    </g>
    <g id="head_shadow">
        <path d="M391.647,545.792C391.605,571.578 390.108,671.329 390.219,695.4C390.247,701.45 403.598,693.507 409.21,692.632C414.834,691.757 421.198,685.111 424.019,683.102C429.338,679.314 428.261,674.772 430.604,669.91C433.459,663.986 432.484,656.56 432.518,649.84C432.576,638.725 432.163,618.722 430.95,603.221C429.52,584.962 430.491,549.858 423.941,540.287C417.773,531.275 391.663,535.639 391.647,545.792Z" style="fill:rgb(209,180,140);"/>
        <g id="left_ear_shadow" transform="matrix(2.33422,0,0,1.79308,-1211.28,-450.304)">
            <ellipse cx="599.41" cy="604.528" rx="5.17" ry="9.027" style="fill:rgb(209,180,140);"/>
        </g>
        <g id="right_ear_shadow" transform="matrix(1.98691,0,0,1.57273,-592.013,-330.175)">
            <ellipse cx="599.41" cy="604.528" rx="5.17" ry="9.027" style="fill:rgb(209,180,140);"/>
        </g>
        <g id="face" transform="matrix(0.963093,0,0,0.788757,21.079,122.701)">
            <path d="M354.601,541.401C363.36,540.476 378.305,539.005 381.34,539.363C384.253,539.707 400.953,539.82 410.84,539.853C410.851,545.554 410.868,551.474 410.536,554.671C409.855,561.251 410.62,568.548 410.714,575.186C410.79,580.577 411.493,586.733 412.135,591.79C414.816,612.92 418.274,626.557 435.185,642.159C445.777,651.931 457.247,660.501 471.308,662.857C491.856,666.3 516.726,665.059 537.08,655.97C551.827,649.385 564.235,638.703 571.76,623.313C577.064,612.466 581.016,581.629 580.258,558.496C579.917,548.08 580.126,522.162 578.812,511.805C578.11,506.27 574.221,502.175 569.634,502.141C533.647,501.871 501.488,502.757 465.486,503.229C453.498,503.386 431.681,503.658 419.731,504.097C416.363,504.221 408.469,503.039 404.18,502.348C392.662,500.491 381.634,500.43 370.253,502.891C364.694,504.093 354.634,506.442 349.029,506.951C322.359,509.373 296.662,507.557 269.762,507.473C253.063,507.42 202.07,506.473 191.96,507.609C187.099,508.155 184.746,510.949 184.178,511.715C182.536,513.929 181.897,516.324 181.762,518.614C181.362,525.454 181.23,562.106 181.244,568.241C181.282,584.48 184.633,604.895 191.256,621.522C196.115,633.72 202.774,643.864 210.835,649.756C216.639,653.998 230,661.052 237.548,664.519C248.687,669.635 269.808,671.393 277.076,670.502C284.707,669.566 303.117,665.397 319.461,655.777C339.598,643.925 348.6,620.26 350.687,611.927C353.842,599.333 354.208,585.684 354.434,569.042C354.51,563.452 354.479,551.477 354.601,541.401ZM336.134,530.647L336.125,530.799C335.764,541.363 335.852,560.969 335.747,568.664C335.554,582.85 335.504,594.517 332.815,605.253C331.385,610.963 325.143,627.099 311.345,635.22C297.408,643.423 281.715,646.997 275.207,647.795C269.495,648.496 252.884,647.181 244.128,643.159C237.442,640.088 225.575,633.932 220.434,630.175C215.207,626.355 211.214,619.45 208.064,611.541C202.674,598.01 199.965,581.391 199.934,568.176C199.924,563.765 199.975,543.026 200.162,529.985C217.141,529.496 255.73,530.249 269.714,530.293C292.272,530.364 314,531.595 336.134,530.647ZM429.385,526.645C441.247,526.359 456.424,526.169 465.686,526.048C498.72,525.616 528.508,524.83 561.014,524.918L561.014,524.918C561.462,536.395 561.341,552.026 561.583,559.408C562.192,577.979 559.97,602.907 555.712,611.615C550.333,622.616 541.202,629.831 530.661,634.538C513.085,642.386 491.593,643.222 473.849,640.248C463.11,638.448 454.542,631.415 446.452,623.951C434.562,612.982 432.489,603.152 430.604,588.295C430.082,584.181 429.463,579.179 429.401,574.793C429.322,569.207 428.505,563.071 429.079,557.534C429.701,551.529 429.212,536.273 429.635,529.829C429.673,529.244 429.65,528.062 429.385,526.645Z" style="fill:rgb(209,180,140);"/>
        </g>
        <g transform="matrix(1,0,0,1,-2.54128,4.07281)">
            <path d="M574.39,519.409C580.729,507.892 582.764,495.73 584.944,482.945C588.425,462.531 589.982,442.364 591.406,421.746C591.954,413.813 592.963,402.823 592.756,402.761C589.843,401.888 573.465,394.733 573.435,394.917C573.403,395.115 573.231,396.459 573.202,396.712C572.997,398.513 572.879,400.315 572.802,402.126C572.475,409.766 572.477,417.409 572.166,425.046C571.28,446.777 570.635,468.487 570.074,490.218C569.82,500.09 568.887,510.017 569.843,519.88" style="fill:rgb(209,180,140);"/>
        </g>
        <g transform="matrix(1,0,0,1,1.5596,1.23762)">
            <path d="M214.468,402.131C215.099,417.575 213.54,433.102 213.152,448.543C212.888,459.032 212.902,469.529 212.598,480.013C212.317,489.713 211.885,499.409 211.405,509.1C211.243,512.367 210.926,515.616 210.677,518.876C210.595,519.956 210.475,521.035 210.343,522.109C210.276,522.649 210.683,523.858 210.154,523.731C208.26,523.274 205.784,519.616 204.758,518.118C200.029,511.214 198.55,502.029 197.569,493.878C195.09,473.274 193.748,452.536 192.675,431.806C192.294,424.442 192.039,417.531 191.721,409.284C191.469,402.74 202.152,402.923 207.617,402.113C209.964,401.765 212.106,401.614 214.468,402.131Z" style="fill:rgb(209,180,140);"/>
        </g>
        <g transform="matrix(0.992928,0,0,1.01043,3.06117,-2.92503)">
            <path d="M214.271,402.538C245.406,390.12 275.053,374.593 307.197,364.504C327.265,358.205 347.257,352.052 368.642,353.525C392.493,355.167 419.665,364.545 440.778,375.633C444.804,377.747 447.997,381.193 451.858,383.372C452.422,383.691 451.471,382.135 451.28,381.516C450.928,380.377 450.61,379.225 450.219,378.097C449.014,374.62 447.473,371.25 446.07,367.85C441.821,357.553 434.909,348.868 430.397,338.773C429.812,337.464 433.258,338.573 434.691,338.545C437.701,338.486 440.635,338.691 443.629,338.934C452.436,339.649 461.15,341.098 469.88,342.415C495.467,346.276 519.444,356.084 541.828,369.004C549.33,373.334 553.588,377.591 560.592,383.639C563.075,385.783 572.093,398.843 572.15,398.317C572.213,397.739 573.258,392.661 573.072,386.55C572.912,381.329 571.563,375.153 571.133,372.602C570.263,367.438 566.142,358.769 566.193,358.741C566.246,358.712 566.821,359.075 566.892,359.113C570.142,360.889 573.409,362.587 576.758,364.167C588.285,369.608 602.662,376.973 612.741,384.818C613.317,385.266 612.606,381.526 612.422,380.82C612.07,379.472 611.713,377.758 611.221,376.455C609.771,372.62 609.295,369.403 607.431,365.747C601.716,354.54 598.018,343.63 590.873,333.192C583.974,323.114 577.729,316.731 571.555,309.887C565.571,303.254 554.06,295.684 546.348,290.887C540.36,287.163 525.443,281.574 522.753,280.411C520.359,279.376 507.679,274.933 500.64,274.112C499.941,274.031 507.662,271.177 508.356,271.116C509.684,270.998 511.015,270.958 512.348,270.961C516.46,270.973 520.533,271.348 524.606,271.878C535.402,273.283 538.993,273.97 547.139,275.823C552.979,277.152 559.701,281.599 564.443,284.578C567.812,286.695 559.867,272.258 558.564,268.579C557.875,266.635 548.864,254.656 543.896,248.909M543.896,248.909C542.18,247.121 511.428,219.374 485.45,212.509C465.075,207.124 445.465,207.36 424.92,209.799C424.418,209.858 425.536,208.998 425.854,208.606C426.529,207.773 427.219,206.951 427.928,206.148C430.508,203.228 433.22,200.493 436.408,198.235C437.116,197.734 440.339,196.313 440.586,195.578C440.593,195.56 433.363,195.346 432.792,195.362C427.537,195.517 422.304,196.216 417.086,196.808C401.309,198.598 385.991,200.254 370.867,205.445C364.564,207.608 358.334,210.254 352.291,213.066C349.813,214.218 346.552,216.776 343.869,217.245C342.788,217.435 344.809,215.261 345.298,214.278C346.295,212.277 347.403,210.306 348.622,208.433C352.33,202.737 356.717,198.144 361.606,193.505C362.399,192.752 359.418,193.524 358.329,193.619C356.096,193.814 353.851,194.105 351.654,194.548C345.235,195.843 339.09,198.402 332.882,200.432C314.897,206.313 295.249,215.934 280.194,227.345C272.005,233.552 265.154,241.319 257.869,248.506C231.215,274.801 208.737,307.949 200.325,344.94C197.188,358.734 196.951,371.941 203.834,388.826C205.99,394.115 209.157,400.139 214.271,402.538" style="fill:rgb(209,180,140);"/>
        </g>
    </g>
    <g id="head" transform="matrix(1,0,0,1,-0.221197,-3.10253)">
        <g id="left_eyebrow">
            <path d="M323.141,488.539C323.215,485.764 322.625,478.634 321.605,478.351C310.089,475.148 299.725,473.276 287.98,472.457C269.706,471.183 252.421,471.045 235.941,479.966C229.556,483.423 221.306,487.699 216.302,493.072C215.362,494.082 215.212,497.243 215.138,498.657C215.065,500.027 214.693,505.71 215.283,506.894C215.569,507.467 219.953,502.54 220.893,501.693C223.756,499.119 227.584,496.816 230.871,495.051C241.276,489.464 250.452,486.637 262.131,484.729C268.324,483.717 284.197,484.668 289.214,485.882C294.22,487.094 302.502,489.434 307.28,491.541C309.691,492.605 314.796,495.152 317.49,495.46C321.25,495.89 323.063,491.446 323.141,488.539Z" style="fill:rgb(107,78,49);"/>
            <path d="M325.14,488.592C325.204,486.211 324.785,480.842 324.065,478.633C323.602,477.212 322.704,476.58 322.141,476.424C310.489,473.184 300.003,471.29 288.119,470.462C269.458,469.161 251.818,469.097 234.989,478.207C228.429,481.758 219.98,486.189 214.839,491.709C214.38,492.201 213.979,492.98 213.72,493.931C213.312,495.433 213.198,497.462 213.14,498.552C213.088,499.54 212.888,502.705 212.979,504.933C213.032,506.235 213.244,507.288 213.493,507.786C213.784,508.37 214.244,508.727 214.857,508.879C215.195,508.962 215.678,508.998 216.256,508.755C216.645,508.593 217.421,508.027 218.283,507.202C219.708,505.84 221.644,503.708 222.231,503.18C224.979,500.709 228.661,498.507 231.817,496.813C242.014,491.338 251.008,488.573 262.454,486.703C268.465,485.72 283.874,486.647 288.744,487.826C293.656,489.015 301.784,491.303 306.472,493.371C309.016,494.493 314.421,497.122 317.263,497.447C319.475,497.7 321.241,496.835 322.557,495.397C324.218,493.582 325.083,490.751 325.14,488.592ZM320.3,480.066C320.389,480.386 320.507,480.848 320.579,481.256C320.979,483.534 321.186,486.829 321.142,488.485L321.142,488.485C321.112,489.616 320.751,491.048 320.025,492.153C319.503,492.948 318.769,493.593 317.717,493.473C315.17,493.182 310.366,490.717 308.087,489.711C303.219,487.564 294.785,485.173 289.685,483.939C284.521,482.688 268.182,481.714 261.809,482.755C249.896,484.702 240.538,487.591 229.925,493.289C226.506,495.124 222.532,497.529 219.556,500.206C219.144,500.577 218.059,501.752 216.961,502.885C216.987,501.178 217.099,499.434 217.135,498.762C217.176,497.982 217.235,496.622 217.468,495.46C217.552,495.041 217.579,494.636 217.766,494.435C222.633,489.209 230.682,485.087 236.893,481.725C253.024,472.993 269.954,473.205 287.841,474.452C299.186,475.243 309.226,477.03 320.3,480.066Z" style="fill:rgb(107,78,49);"/>
        </g>
        <g id="right_eyebrow" transform="matrix(1,0,0,1,0.500011,1.54713)">
            <path d="M556.149,495.894C536.005,472.45 503.375,463.015 473.156,466.82C463.662,468.015 454.296,469.893 445.263,473.088C440.832,474.655 433.364,478.348 428.669,478.483C424.123,478.614 423.79,464.402 426.079,462.558C429.141,460.092 444.943,456.947 451.151,455.878C453.677,455.444 456.17,454.83 458.689,454.362C465.196,453.154 477.238,452.494 483.835,452.424C503.06,452.221 520.001,453.98 536.972,464.152C547.43,470.42 557.572,482.657 556.149,495.894Z" style="fill:rgb(107,78,49);"/>
            <path d="M554.632,497.197C555.152,497.802 555.981,498.04 556.743,497.804C557.504,497.567 558.052,496.9 558.138,496.107C559.643,482.104 549.064,469.067 538,462.437C520.69,452.062 503.422,450.217 483.814,450.424C477.127,450.495 464.92,451.171 458.324,452.396C455.813,452.862 453.329,453.474 450.812,453.907C446.413,454.664 437.255,456.455 431.093,458.315C428.156,459.202 425.859,460.168 424.825,461.001C424.178,461.522 423.527,462.603 423.162,464.137C422.566,466.639 422.515,470.604 423.174,473.862C423.596,475.945 424.332,477.744 425.286,478.856C426.233,479.959 427.399,480.52 428.727,480.482C433.587,480.343 441.342,476.596 445.93,474.974C454.828,471.827 464.054,469.982 473.406,468.804C502.975,465.081 534.922,474.258 554.632,497.197ZM427.411,464.056C428.25,463.43 430.039,462.812 432.25,462.144C438.262,460.329 447.198,458.588 451.49,457.849C454.025,457.413 456.526,456.798 459.055,456.329C465.472,455.137 477.35,454.493 483.857,454.424C502.697,454.225 519.311,455.899 535.944,465.868C544.478,470.983 552.903,480.249 554.132,490.743L554.131,490.741C533.405,469.609 502.065,461.164 472.906,464.836C463.27,466.049 453.765,467.96 444.596,471.202C440.321,472.714 433.141,476.354 428.612,476.484C428.367,476.491 428.273,476.215 428.116,475.971C427.644,475.239 427.325,474.208 427.095,473.069C426.626,470.75 426.576,467.999 426.884,465.951C426.999,465.189 427.355,464.207 427.411,464.056Z" style="fill:rgb(107,78,49);"/>
        </g>
        <g id="left_eye" transform="matrix(1,0,0,1,0.541038,-3.26679)">
            <path d="M263.893,605.218C272.317,605.125 272.402,605.092 280.628,605.122C281.732,605.126 282.632,604.233 282.636,603.129C282.639,602.025 281.746,601.126 280.643,601.122C272.388,601.092 272.302,601.125 263.849,601.218C262.746,601.23 261.859,602.136 261.871,603.24C261.883,604.343 262.789,605.23 263.893,605.218ZM265.289,569.624C261.71,571.782 259.337,575.798 258.79,579.957C258.227,584.235 259.572,588.617 263.277,591.347C267.944,594.786 274.312,594.198 279.276,591.858C282.756,590.217 284.923,586.804 285.624,583.03C286.309,579.343 285.577,575.353 283.485,572.506C279.342,566.863 270.991,566.187 265.289,569.624ZM267.355,573.05C271.389,570.617 277.33,570.881 280.261,574.873C281.734,576.879 282.174,579.703 281.691,582.299C281.225,584.809 279.884,587.149 277.57,588.24C273.874,589.982 269.125,590.688 265.65,588.127C263.175,586.303 262.379,583.337 262.755,580.479C263.147,577.502 264.793,574.594 267.355,573.05Z" style="fill:rgb(107,78,49);"/>
        </g>
        <g id="right_eye" transform="matrix(1,0,0,1,222.951,-5.98727)">
            <path d="M263.893,605.218C272.317,605.125 272.402,605.092 280.628,605.122C281.732,605.126 282.632,604.233 282.636,603.129C282.639,602.025 281.746,601.126 280.643,601.122C272.388,601.092 272.302,601.125 263.849,601.218C262.746,601.23 261.859,602.136 261.871,603.24C261.883,604.343 262.789,605.23 263.893,605.218ZM265.289,569.624C261.71,571.782 259.337,575.798 258.79,579.957C258.227,584.235 259.572,588.617 263.277,591.347C267.944,594.786 274.312,594.198 279.276,591.858C282.756,590.217 284.923,586.804 285.624,583.03C286.309,579.343 285.577,575.353 283.485,572.506C279.342,566.863 270.991,566.187 265.289,569.624ZM267.355,573.05C271.389,570.617 277.33,570.881 280.261,574.873C281.734,576.879 282.174,579.703 281.691,582.299C281.225,584.809 279.884,587.149 277.57,588.24C273.874,589.982 269.125,590.688 265.65,588.127C263.175,586.303 262.379,583.337 262.755,580.479C263.147,577.502 264.793,574.594 267.355,573.05Z" style="fill:rgb(107,78,49);"/>
        </g>
        <g id="hair" transform="matrix(1,0,0,1,0.221197,3.10253)">
            <path id="face1" id="face" d="M349.12,189.034C345.648,192.572 342.483,196.255 339.69,200.546C338.429,202.483 337.282,204.521 336.252,206.591C335.943,207.21 335.012,208.308 334.664,208.971C334.363,209.546 334.287,210.056 334.301,210.391C334.33,211.09 334.632,211.604 335.091,211.976C335.442,212.26 336.017,212.584 336.958,212.419C339.788,211.924 343.265,209.299 345.879,208.083C351.858,205.3 358.023,202.681 364.26,200.54C379.244,195.398 394.424,193.772 410.056,191.999C415.218,191.413 420.396,190.718 425.594,190.565C425.729,190.561 426.238,190.571 426.935,190.588C424.07,192.772 421.564,195.32 419.173,198.028C418.445,198.852 417.737,199.695 417.044,200.55C416.844,200.797 416.32,201.231 416.099,201.497C415.757,201.91 415.623,202.309 415.575,202.556C415.416,203.369 415.692,203.978 416.167,204.433C416.446,204.699 416.955,205.101 417.9,204.989C438.191,202.58 457.559,202.328 477.683,207.646C503.253,214.403 531.897,235.689 547.26,257.344C547.899,258.244 549.148,258.457 550.049,257.818C550.949,257.179 551.161,255.93 550.523,255.03C534.67,232.684 505.09,210.751 478.705,203.779C459.712,198.76 441.376,198.549 422.35,200.474C424.773,197.746 427.319,195.187 430.308,193.071C430.886,192.662 433.101,191.644 434.095,190.873C434.747,190.367 435.094,189.813 435.226,189.419C435.236,189.388 435.359,186.861 433.211,186.773C432.017,186.724 426,186.552 425.477,186.567C420.167,186.723 414.878,187.426 409.605,188.024C393.682,189.831 378.225,191.518 362.962,196.757C356.593,198.943 350.297,201.615 344.191,204.456C343.197,204.918 342.08,205.595 340.924,206.282C341.586,205.07 342.293,203.88 343.043,202.727C346.662,197.166 350.953,192.689 355.727,188.159C356.48,187.444 356.506,186.748 356.477,186.35C356.424,185.645 356.096,185.002 355.27,184.613C355.009,184.49 354.536,184.356 353.903,184.388C353.122,184.428 351.613,184.768 350.899,184.831C348.592,185.032 346.273,185.333 344.002,185.791C337.508,187.101 331.286,189.68 325.004,191.734C306.818,197.681 286.953,207.416 271.729,218.955C263.471,225.215 256.554,233.038 249.208,240.286C222.288,266.844 199.614,300.34 191.119,337.701C187.91,351.808 188.68,364.86 192.566,379.94C194.125,385.991 200.027,393.758 205.593,396.369C206.592,396.838 207.784,396.407 208.253,395.408C208.722,394.409 208.291,393.217 207.292,392.748C202.63,390.561 197.746,384.01 196.44,378.942C192.727,364.534 191.954,352.066 195.019,338.588C203.347,301.966 225.629,269.166 252.017,243.133C259.24,236.007 266.026,228.298 274.146,222.143C289.033,210.859 308.464,201.351 326.247,195.536C332.382,193.53 338.451,190.991 344.793,189.712C346.22,189.424 347.668,189.204 349.12,189.034Z" style="fill:rgb(107,78,49);"/>
            <path id="face2" id="face" d="M557.07,271.581C554.795,270.747 552.453,270.096 550.095,269.549C539.427,267.077 528.469,264.512 517.608,263.098C513.451,262.557 509.294,262.176 505.097,262.165C503.704,262.161 502.312,262.205 500.924,262.327C500.494,262.365 499.603,262.223 499.136,262.25C498.558,262.284 498.139,262.471 497.893,262.632C497.301,263.019 497.027,263.549 496.958,264.136C496.909,264.557 496.925,265.194 497.548,265.871C498.047,266.413 499.216,266.992 500.778,267.339C503.147,267.864 506.67,268.112 507.939,268.502C514.528,270.532 520.809,273.91 526.585,277.629C546.656,290.552 562.916,307.504 576.351,327.13C583.447,337.496 588.651,348.534 594.327,359.665C596.158,363.255 597.736,367.047 599.16,370.814L599.266,371.095C590.241,364.945 580.22,360.218 570.356,355.562C567.042,353.998 563.81,352.318 560.594,350.562C560.495,350.507 559.727,350.084 559.518,350.024C558.776,349.812 558.249,350.042 557.98,350.188C557.896,350.234 556.497,351.195 557.139,352.875C557.606,354.095 560.194,360.085 560.374,360.555C561.959,364.719 563.434,374.906 564.076,381.138C561.666,378.628 558.609,375.518 557.29,374.49C550.372,369.091 546.531,366.316 538.934,361.931C516.342,348.891 488.746,337.538 462.923,333.641C454.147,332.317 445.387,330.863 436.534,330.144C433.473,329.896 430.473,329.688 427.396,329.749C426.875,329.759 426.049,329.576 425.301,329.467C424.505,329.351 423.765,329.305 423.266,329.374C422.404,329.493 421.845,329.909 421.519,330.353C421.109,330.909 420.824,331.695 421.315,332.792C425.819,342.87 432.723,351.537 436.965,361.816C438.306,365.066 439.777,368.288 440.949,371.605C438.868,369.982 436.8,368.299 434.451,367.066C413.108,355.857 385.634,346.394 361.523,344.733C339.885,343.243 319.648,349.426 299.342,355.8C267.149,365.904 237.742,380.657 206.56,393.094C205.534,393.503 205.034,394.668 205.443,395.693C205.852,396.718 207.016,397.219 208.042,396.81C239.13,384.409 268.444,369.69 300.539,359.616C320.37,353.392 340.117,347.269 361.248,348.724C384.839,350.349 411.709,359.641 432.592,370.607C436.6,372.712 439.775,376.148 443.618,378.318C444.475,378.801 445.114,378.617 445.468,378.479C446.109,378.229 446.618,377.745 446.753,376.87C446.792,376.619 446.799,376.189 446.617,375.665C446.474,375.256 446.052,374.51 445.934,374.13C445.576,372.968 445.251,371.795 444.853,370.646C443.635,367.133 442.08,363.726 440.662,360.29C436.757,350.828 430.612,342.722 426.133,333.638C426.642,333.708 427.113,333.756 427.475,333.748C430.417,333.69 433.284,333.894 436.211,334.131C444.972,334.842 453.641,336.286 462.326,337.596C487.676,341.421 514.757,352.595 536.934,365.396C544.341,369.671 548.084,372.38 554.829,377.643C557.154,379.457 563.595,386.72 564.902,387.771C565.971,388.631 566.937,388.279 567.2,388.16C567.796,387.891 568.282,387.412 568.377,386.533C568.603,384.448 566.502,365.406 564.112,359.131C564.036,358.932 563.526,357.739 562.929,356.339C564.816,357.32 566.719,358.269 568.648,359.18C580.043,364.558 591.669,370.005 601.633,377.76C602.433,378.383 603.105,378.279 603.458,378.198C604.176,378.033 604.792,377.589 605.002,376.626C605.053,376.388 605.088,375.96 604.947,375.421C604.819,374.928 604.409,373.999 604.291,373.547C603.922,372.13 603.419,370.768 602.902,369.4C601.426,365.496 599.788,361.568 597.89,357.847C592.135,346.563 586.846,335.38 579.652,324.87C565.914,304.802 549.274,287.48 528.751,274.266C524.384,271.455 519.738,268.838 514.898,266.796C515.629,266.879 516.36,266.97 517.091,267.065C527.823,268.462 538.651,271.003 549.191,273.446C552.304,274.168 555.39,275.077 558.303,276.402C559.274,276.844 560.22,277.345 561.137,277.89C561.259,278.01 561.776,278.513 562.012,278.675C562.41,278.948 562.806,279.067 563.135,279.1C563.979,279.184 564.772,278.938 565.297,277.894C565.478,277.533 565.703,276.508 564.973,275.316C564.185,274.028 561.868,271.369 561.458,270.816C557.568,265.574 554.235,259.939 550.243,254.772C549.569,253.899 548.311,253.738 547.438,254.412C546.564,255.087 546.403,256.344 547.078,257.218C550.646,261.836 553.684,266.832 557.07,271.581Z" style="fill:rgb(107,78,49);"/>
            <path d="M567.902,390.433C569.862,390.787 571.821,391.133 573.799,391.375C576.395,391.692 578.966,392.074 581.577,392.259L582.429,392.3C583.761,399.606 582.656,407.549 582.154,414.812C580.735,435.363 579.186,455.465 575.716,475.813C573.574,488.374 571.61,500.333 565.382,511.649C564.849,512.616 565.202,513.833 566.169,514.365C567.136,514.898 568.354,514.545 568.886,513.578C575.336,501.859 577.441,489.494 579.659,476.485C583.151,456.004 584.716,435.773 586.145,415.087C586.706,406.965 587.895,398.031 586.029,389.961C585.971,389.708 585.695,388.659 584.371,388.42C583.977,388.349 582.071,388.284 581.859,388.269C579.316,388.089 576.813,387.713 574.285,387.404C572.363,387.169 570.461,386.83 568.557,386.487C568.239,386.429 567.16,386.113 566.569,386.084C565.931,386.052 565.445,386.229 565.15,386.406C564.873,386.572 564.526,386.864 564.295,387.392C564.112,387.813 563.994,389.384 563.959,389.689C563.748,391.537 563.627,393.386 563.548,395.244C563.221,402.886 563.223,410.53 562.911,418.169C562.025,439.909 561.38,461.629 560.819,483.37C560.562,493.323 559.633,503.332 560.596,513.277C560.702,514.375 561.681,515.181 562.779,515.074C563.878,514.968 564.684,513.99 564.577,512.891C563.63,503.109 564.565,493.264 564.817,483.473C565.378,461.752 566.022,440.052 566.908,418.332C567.219,410.695 567.217,403.054 567.544,395.415C567.615,393.749 567.721,392.09 567.902,390.433Z" style="fill:rgb(107,78,49);"/>
            <path id="face3" id="face" d="M205.081,515.476C205.214,514.398 205.332,513.315 205.415,512.232C205.665,508.954 205.984,505.687 206.146,502.402C206.627,492.698 207.059,482.988 207.341,473.275C207.645,462.788 207.631,452.289 207.895,441.797C208.284,426.312 209.843,410.741 209.21,395.253C209.173,394.344 208.528,393.575 207.639,393.381C205.029,392.809 202.661,392.954 200.067,393.338C196.633,393.848 192.212,394.181 188.692,395.72C185.958,396.915 183.732,398.79 182.596,401.777C181.525,404.592 181.399,407.937 181.701,411.416C182.108,416.115 183.3,421.076 183.419,425.069C184.041,445.878 185.841,466.657 188.328,487.32C189.345,495.778 190.945,505.289 195.851,512.452C196.626,513.583 198.181,515.845 199.737,517.276C200.645,518.112 201.594,518.678 202.429,518.879C203.613,519.164 204.32,518.684 204.793,517.952C204.976,517.67 205.133,517.276 205.166,516.779C205.188,516.454 205.097,515.615 205.081,515.476ZM201.319,513.131C200.419,512.06 199.623,510.88 199.151,510.191C194.6,503.547 193.243,494.687 192.299,486.843C189.827,466.298 188.036,445.639 187.418,424.95C187.316,421.537 186.465,417.433 185.939,413.371C185.467,409.726 185.225,406.115 186.334,403.199C187.267,400.749 189.425,399.563 191.827,398.822C194.728,397.926 198.011,397.687 200.654,397.295C202.243,397.059 203.728,396.912 205.272,397.054L205.272,397.054C205.734,411.914 204.269,426.845 203.896,441.697C203.633,452.183 203.646,462.677 203.342,473.159C203.062,482.845 202.631,492.527 202.151,502.204C201.99,505.454 201.674,508.685 201.426,511.927C201.396,512.329 201.36,512.73 201.319,513.131Z" style="fill:rgb(107,78,49);"/>
        </g>
        <g id="face4" id="face" transform="matrix(1,0,0,1,0.221197,3.10253)">
            <path d="M361.564,541.819C364.476,541.491 375.534,540.251 377.682,540.092C382.332,539.748 393.755,539.782 397.844,539.983C399.981,540.088 402.975,540.292 405.382,540.727C406.34,540.899 407.196,541.06 407.773,541.312C407.804,542.501 407.909,546.566 407.918,547.233C408,553.34 408.34,559.448 408.426,565.56C408.496,570.525 408.799,575.337 409.39,579.996C411.733,598.459 418.586,614.519 433.362,628.152C442.988,637.033 455.754,641.671 468.533,643.813C487.979,647.071 512.962,646.689 533.973,639.126C548.199,634.006 560.605,625.601 568.381,612.905C579.928,594.053 577.666,572.203 576.97,550.965C576.636,540.786 577.248,524.244 575.964,514.123C575.838,513.129 574.997,512.382 573.995,512.375C538.048,512.105 501.521,512.168 465.56,512.638C453.608,512.795 431.854,513.066 419.939,513.504C416.33,513.637 407.87,512.426 403.275,511.686C392.474,509.945 382.133,509.864 371.46,512.171C365.719,513.413 355.329,515.813 349.542,516.338C322.693,518.776 296.824,516.968 269.744,516.883C251.393,516.825 197.135,517.632 191.953,517.695C191.514,517.701 191.05,517.83 190.622,518.221C190.5,518.333 190.015,518.818 189.92,519.822C189.741,521.694 189.791,531.067 189.807,531.537C190.163,541.9 188.991,552.234 189.667,562.591C191.299,587.588 194.396,613.722 214.753,631.128C220.106,635.704 226.089,639.409 232.406,642.501C238.441,645.456 244.885,647.939 251.483,649.285C293.272,657.81 346.65,639.8 358.813,594.762C361.99,582.998 361.675,570.365 361.469,558.267C361.404,554.478 361.221,546.202 361.564,541.819ZM193.833,521.67C204.749,521.521 252.706,520.83 269.732,520.883C296.938,520.968 322.929,522.771 349.903,520.322C355.818,519.785 366.439,517.349 372.306,516.081C382.481,513.881 392.341,513.975 402.639,515.635C407.449,516.41 416.308,517.64 420.086,517.501C431.976,517.064 453.685,516.794 465.612,516.638C500.955,516.175 536.845,516.107 572.192,516.361L572.192,516.361C573.2,526.454 572.66,541.582 572.972,551.096C573.642,571.56 576.096,592.65 564.97,610.816C557.671,622.734 545.973,630.556 532.618,635.363C512.256,642.692 488.04,643.026 469.195,639.868C457.173,637.853 445.13,633.566 436.075,625.212C422.051,612.274 415.582,597.015 413.358,579.492C412.786,574.978 412.493,570.315 412.425,565.503C412.339,559.392 412,553.285 411.917,547.179C411.906,546.376 412.065,542.413 411.757,540.555C411.572,539.436 411.076,538.735 410.719,538.447C410.046,537.907 408.87,537.407 407.384,537.057C404.658,536.412 400.722,536.12 398.041,535.988C393.852,535.782 382.15,535.751 377.387,536.103C375.075,536.274 364.966,536.937 360.941,537.756C359.67,538.014 358.829,538.41 358.502,538.686C357.975,539.129 357.779,539.638 357.72,540.086C357.2,544.07 357.396,554.019 357.469,558.335C357.67,570.064 358.032,582.314 354.952,593.719C343.34,636.715 292.177,653.504 252.283,645.366C246.014,644.087 239.897,641.715 234.165,638.909C228.15,635.964 222.449,632.445 217.352,628.087C197.856,611.419 195.221,586.269 193.659,562.331C192.985,552.015 194.159,541.722 193.805,531.399C193.792,531.028 193.75,524.807 193.833,521.67Z" style="fill:rgb(107,78,49);"/>
        </g>
        <g id="face5" id="face" transform="matrix(1,0,0,1,0.221197,3.10253)">
            <path d="M340.922,535.317C340.954,534.774 340.762,534.241 340.393,533.842C340.023,533.443 339.506,533.212 338.962,533.202C307.334,532.627 275.806,534.999 244.17,535.058C235.567,535.074 226.958,535.231 218.353,535.301C216.636,535.315 212.233,535.223 211.31,535.307C210.133,535.414 209.689,536.166 209.594,536.33C209.075,537.225 208.735,538.528 208.558,539.951C208.343,541.673 208.338,543.588 208.254,544.84C207.794,551.74 207.851,558.696 207.88,565.609C207.949,581.825 209.506,597.779 220.226,610.742C234.392,627.875 255.803,631.676 276.889,631.358C284.442,631.244 292.464,631.299 299.841,629.602C310.308,627.194 321.375,620.645 328.708,612.88C331.887,609.515 335.24,605.815 337.214,601.578C340.546,594.428 341.662,585.225 341.82,575.528C342.049,561.47 340.284,546.354 340.922,535.317ZM212.713,539.295C214.288,539.301 217.215,539.31 218.386,539.3C226.982,539.231 235.583,539.074 244.177,539.058C275.102,539 305.924,536.728 336.837,537.168L336.837,537.168C336.496,548.024 338.036,562.211 337.82,575.463C337.673,584.55 336.711,593.189 333.588,599.889C331.792,603.743 328.692,607.072 325.8,610.134C318.977,617.36 308.684,623.463 298.945,625.703C291.837,627.338 284.106,627.249 276.829,627.358C256.949,627.658 236.664,624.346 223.308,608.193C213.204,595.973 211.945,580.878 211.88,565.592C211.851,558.773 211.792,551.912 212.245,545.106C212.325,543.913 212.323,542.087 212.527,540.445C212.578,540.042 212.634,539.65 212.713,539.295Z" style="fill:rgb(107,78,49);"/>
        </g>
        <g id="face6" id="face" transform="matrix(1,0,0,1,0.221197,3.10253)">
            <path d="M559.317,531.569C559.348,531.026 559.157,530.493 558.787,530.094C558.417,529.695 557.9,529.464 557.356,529.454C525.728,528.879 494.2,531.251 462.564,531.31C453.961,531.326 445.352,531.483 436.747,531.552C434.887,531.568 433.027,531.511 431.167,531.517C430.922,531.517 429.351,531.476 428.96,531.587C428.242,531.791 427.892,532.235 427.714,532.541C427.182,533.459 426.878,534.802 426.765,536.27C426.634,537.971 426.73,539.864 426.648,541.092C426.189,547.992 426.245,554.948 426.275,561.86C426.344,578.077 427.901,594.03 438.62,606.994C452.786,624.126 474.197,627.927 495.284,627.61C502.836,627.496 510.859,627.55 518.236,625.853C528.702,623.446 539.77,616.897 547.103,609.132C550.281,605.766 553.634,602.067 555.608,597.83C558.94,590.68 560.056,581.477 560.214,571.78C560.443,557.721 558.678,542.606 559.317,531.569ZM430.87,535.51C431.021,535.514 431.14,535.517 431.179,535.517C433.046,535.511 434.913,535.567 436.78,535.552C445.377,535.483 453.977,535.326 462.572,535.31C493.496,535.252 524.318,532.98 555.232,533.42L555.232,533.42C554.891,544.276 556.431,558.463 556.215,571.715C556.067,580.802 555.105,589.44 551.983,596.141C550.186,599.995 547.086,603.324 544.194,606.386C537.371,613.611 527.078,619.715 517.339,621.955C510.232,623.59 502.5,623.501 495.223,623.61C475.343,623.91 455.058,620.598 441.703,604.445C431.598,592.225 430.34,577.13 430.275,561.843C430.246,555.025 430.186,548.164 430.64,541.358C430.721,540.141 430.623,538.264 430.753,536.578C430.782,536.204 430.814,535.841 430.87,535.51Z" style="fill:rgb(107,78,49);"/>
        </g>
        <g id="face7" id="face" transform="matrix(1,0,0,1,0.221197,3.10253)">
            <path d="M347.025,615.554C346.236,626.797 345.773,638.095 345.541,649.359C345.257,663.089 343.898,673.124 354.093,683.717C356.434,686.149 359.342,687.417 362.111,689.242C369.126,693.868 375.835,697.995 384.496,698.724C397.786,699.843 417.338,693.657 426.252,683.391C431.337,677.536 433.802,669.524 434.456,661.929C434.55,660.829 433.734,659.86 432.634,659.765C431.535,659.67 430.565,660.486 430.47,661.586C429.887,668.363 427.77,675.544 423.232,680.769C415.043,690.199 397.04,695.766 384.832,694.738C376.872,694.069 370.759,690.153 364.312,685.903C361.794,684.243 359.104,683.155 356.975,680.943C347.655,671.259 349.281,661.993 349.54,649.441C349.771,638.243 350.231,627.012 351.015,615.834C351.093,614.733 350.262,613.777 349.16,613.699C348.059,613.622 347.103,614.453 347.025,615.554Z" style="fill:rgb(107,78,49);"/>
        </g>
        <g id="face8" id="face" transform="matrix(1,0,0,1,0.221197,3.10253)">
            <path d="M578.693,540.284C587.652,535.996 599.635,535.571 610.029,538.946C620.252,542.265 628.975,549.291 631.54,560.153C634.821,574.045 630.472,587.886 626.083,601.028C622.724,611.087 618.893,623.156 612.764,633.028C606.88,642.506 598.857,649.953 586.879,651.203C581.774,651.736 576.037,650.452 571.072,649.298C566.096,648.141 560.709,645.663 556.498,642.768C555.589,642.142 554.343,642.373 553.717,643.283C553.092,644.192 553.323,645.439 554.232,646.064C558.834,649.228 564.726,651.929 570.166,653.194C575.543,654.444 581.766,655.758 587.294,655.182C600.604,653.793 609.624,645.669 616.163,635.138C622.456,625.001 626.428,612.624 629.877,602.295C634.499,588.458 638.887,573.86 635.433,559.234C632.535,546.963 622.813,538.891 611.264,535.141C599.887,531.447 586.773,531.982 576.966,536.676C575.97,537.152 575.549,538.347 576.025,539.343C576.502,540.339 577.697,540.76 578.693,540.284Z" style="fill:rgb(107,78,49);"/>
        </g>
        <g id="face9" id="face" transform="matrix(1,0,0,1,0.221197,3.10253)">
            <path d="M613.834,576.159C606.458,579.321 599.446,583.563 592.75,587.97C588.39,590.839 584.242,594.318 581.141,598.55C577.798,603.111 575.277,609.044 576.026,614.813C577.596,626.91 587.374,632.364 595.055,630.095C600.173,628.582 604.66,623.652 605.184,614.564C605.439,610.158 604.709,605.681 603.802,601.381C603.574,600.301 602.512,599.609 601.432,599.837C600.352,600.065 599.66,601.127 599.888,602.207C600.723,606.164 601.425,610.279 601.191,614.333C600.796,621.179 597.776,625.12 593.922,626.258C588.144,627.966 581.174,623.398 579.993,614.298C579.374,609.533 581.606,604.682 584.367,600.915C587.189,597.065 590.982,593.921 594.949,591.311C601.449,587.034 608.25,582.904 615.41,579.835C616.425,579.4 616.895,578.223 616.46,577.209C616.025,576.194 614.848,575.724 613.834,576.159Z" style="fill:rgb(107,78,49);"/>
        </g>
        <g id="face10" id="face" transform="matrix(1,0,0,1,0.221197,3.10253)">
            <path d="M559.228,650.228C559.378,700.648 557.107,759.131 522.046,799.03C478.863,848.17 399.442,871.774 336.593,855.742C294.135,844.911 255.995,815.193 232.568,778.634C209.821,743.134 204.942,698.646 208.002,657.329C208.084,656.228 207.256,655.268 206.156,655.187C205.055,655.105 204.095,655.933 204.013,657.033C200.89,699.195 205.988,744.567 229.2,780.792C253.158,818.18 292.185,848.542 335.604,859.617C399.808,875.995 480.936,851.87 525.05,801.67C560.756,761.039 563.381,701.561 563.228,650.216C563.224,649.112 562.326,648.218 561.222,648.222C560.118,648.225 559.224,649.124 559.228,650.228Z" style="fill:rgb(107,78,49);"/>
        </g>
        <g id="face11" id="face" transform="matrix(1,0,0,1,0.221197,3.10253)">
            <path d="M191.161,545.004C180.701,539.958 167.228,537.958 155.976,541.378C142.535,545.462 130.963,560.765 128.724,574.33C126.13,590.035 133.409,606.494 139.415,620.574C143.202,629.45 146.655,639.536 151.824,648.016C157.221,656.872 164.463,663.997 175.641,666.537C178.839,667.264 181.971,667.676 185.26,667.376C189.592,666.98 193.738,665.435 197.659,663.647C203.146,661.143 207.46,657.152 211.905,653.19C212.729,652.455 212.801,651.19 212.067,650.366C211.332,649.542 210.067,649.469 209.243,650.204C205.099,653.898 201.115,657.673 195.998,660.008C192.484,661.611 188.78,663.037 184.896,663.392C182.034,663.654 179.311,663.269 176.528,662.637C166.503,660.358 160.08,653.876 155.239,645.934C150.169,637.616 146.809,627.711 143.094,619.004C137.37,605.584 130.198,589.951 132.67,574.982C134.689,562.756 145.025,548.886 157.139,545.205C167.466,542.066 179.823,543.976 189.423,548.606C190.417,549.086 191.614,548.668 192.094,547.674C192.573,546.68 192.155,545.483 191.161,545.004Z" style="fill:rgb(107,78,49);"/>
        </g>
        <g id="face12" id="face" transform="matrix(1,0,0,1,0.221197,3.10253)">
            <path d="M161.819,607.65C161.196,612.111 160.079,617.239 161.321,621.683C162.796,626.96 166.894,632.514 171.689,635.219C174.301,636.692 177.116,637.338 179.856,636.823C182.578,636.312 185.28,634.664 187.616,631.326C189.66,628.406 190.593,624.575 190.673,620.548C190.787,614.785 189.17,608.634 186.982,604.485C184.427,599.641 180.796,595.147 176.599,591.641C170.368,586.437 163.115,583.777 155.503,581.415C154.449,581.088 153.327,581.678 153,582.732C152.673,583.786 153.263,584.908 154.318,585.235C161.42,587.439 168.22,589.855 174.034,594.711C177.838,597.888 181.129,601.961 183.444,606.351C185.367,609.996 186.774,615.404 186.673,620.468C186.61,623.659 185.959,626.719 184.339,629.033C182.744,631.311 180.976,632.543 179.118,632.892C177.279,633.237 175.407,632.724 173.654,631.735C169.72,629.516 166.384,624.937 165.174,620.606C164.075,616.676 165.229,612.149 165.781,608.204C165.934,607.111 165.17,606.099 164.077,605.946C162.984,605.794 161.972,606.557 161.819,607.65Z" style="fill:rgb(107,78,49);"/>
        </g>
        <g id="face13" id="face" transform="matrix(1,0,0,1,0.221197,3.10253)">
            <path d="M461.836,743.386C419.163,768.498 354.109,771.003 311.253,745.001C310.31,744.428 309.079,744.73 308.506,745.673C307.933,746.617 308.235,747.848 309.178,748.421C353.201,775.132 420.029,772.63 463.865,746.833C464.816,746.273 465.134,745.046 464.574,744.095C464.015,743.144 462.788,742.826 461.836,743.386Z" style="fill:rgb(107,78,49);"/>
        </g>
    </g>
</svg>
