<?xml version="1.0" encoding="UTF-8" standalone="no"?>
<svg width="100%" height="100%" viewBox="0 0 3750 3750" version="1.1" xmlns="http://www.w3.org/2000/svg" xmlns:xlink="http://www.w3.org/1999/xlink" xml:space="preserve" style="fill-rule:evenodd;clip-rule:evenodd;stroke-linejoin:round;stroke-miterlimit:2;">
    <path id="q16" d="M1873.78,1246.88c-2.015,-12.988 -5.707,-24.824 -4.105,-37.5c5.219,-41.156 24.215,-74.637 53.152,-103.977c26.762,-27.125 57.059,-49.695 86.93,-72.894c61.168,-47.492 83.85,-111.813 81.242,-186.696c-0.699,-20.257 -1.691,-41.39 -11.637,-59.785c-29.673,-54.926 -77.843,-85.695 -138.023,-93.328c-66.445,-8.41 -129.68,2.945 -182.828,49.004c-26.098,22.629 -50.125,45.969 -53.324,83.094c-1.7,19.597 -9.719,38.492 -4.973,58.894c1.801,7.711 4.91,11.645 12.101,14.293c18.829,6.934 38.454,9.551 58.051,12.867c9.02,1.528 12.664,-1.171 13.969,-9.429c0.496,-3.051 1.109,-6.176 2.266,-9.024c9.703,-23.949 16.89,-48.929 36.8,-67.765c30.125,-28.516 65.293,-36.336 105.918,-34.844c41.645,1.527 70.84,40.988 73.453,73.582c2.176,27.305 -5.609,50.277 -20.453,73.277c-18.41,28.536 -42.859,47.559 -73.55,59.914c-16.172,6.512 -33.067,10.446 -50.016,14.422c-36.082,8.446 -66.074,27.028 -82.645,60.797c-16.496,33.613 -24.699,69.914 -22.574,107.875c0.664,11.75 2.426,23.488 2.606,35.242c0.144,9.868 4.757,14.004 13.797,16.715c25.621,7.703 51.64,13.363 78.093,16.996c7.867,1.078 16.051,1.512 25.75,-1.73Zm-185.008,-395.863c0.508,-8.665 0.004,-17.536 1.711,-25.954c7.411,-36.515 25.942,-66.652 53.946,-91.105c54.781,-47.82 119.668,-64.285 190.203,-56.887c45.156,4.739 86.222,22.766 119.574,55.09c8.008,7.77 15.066,16.504 22.539,24.832c20.586,22.977 26.164,51.305 29.215,80.703c4.539,43.621 -3.77,84.879 -20.521,125.086c-11.988,28.766 -30.37,52.25 -53.506,72.633c-21.469,18.902 -46.719,32.902 -67.524,52.613c-23.066,21.856 -44.785,44.602 -54.051,76.336c-1.949,6.68 -3.574,15.145 -14.691,12.008c-5.188,-1.457 -5.496,3.605 -6.445,7.043c-5.887,21.391 -6.692,42.773 0.082,64.176c4.226,13.328 2.586,16.5 -10.614,15.179c-21.328,-2.125 -42.007,2.168 -62.933,4.27c-8.258,0.828 -16.551,1.992 -19.043,-9.254c-1.375,-6.234 -7.102,-5.848 -11.707,-7.363c-11.192,-3.692 -22.324,-7.555 -33.367,-11.649c-6.2,-2.297 -9.743,-6.339 -10.438,-13.75c-2.371,-25.281 -6.18,-50.664 -3.238,-75.937c5.683,-48.895 17.848,-95.098 60.14,-127.106c20.497,-15.527 44.645,-21.351 68.571,-27.41c26.734,-6.769 52.246,-15.066 74.226,-32.73c35.684,-28.672 52.993,-64.461 45.719,-110.656c-3.121,-19.778 -25.101,-42.04 -44.801,-44.629c-32.101,-4.207 -63.07,-1.047 -91.261,16.468c-14.918,9.278 -27.063,21.024 -34.649,37.536c-8.824,19.199 -16.367,38.816 -22.222,59.046c-1.868,6.438 -3.438,8.981 -11.086,7.77c-23.309,-3.711 -46.653,-7.277 -69.575,-12.938c-21.644,-5.336 -25.386,-10.136 -26.3,-31.894c-0.457,-10.516 0.046,-21.07 0.113,-31.613c0.644,0.031 1.289,0.054 1.933,0.086Zm122.563,503.222c-10.996,-0.008 -18.41,-0.207 -25.809,0.039c-3.679,0.129 -7.355,0.953 -11.004,1.629c-15.878,2.934 -19.453,7.516 -19.457,23.735c-0.011,9.203 5.317,18.988 3.2,26.691c-3.793,13.84 1.347,25.555 3.16,38.144c1.691,11.868 8.179,17.571 20.047,20.891c23.664,6.629 48.035,4.902 71.914,8.43c11.277,1.668 18.613,-5.574 22.718,-15.59c3.336,-8.113 4.317,-16.758 4.344,-25.527c0.028,-14.254 0.039,-28.516 0.301,-42.766c0.582,-30.688 0.59,-30.375 -28.934,-36.328c-14.851,-2.992 -25.781,0.25 -35.281,13.066c-11.437,15.43 -22.98,30.719 -33.226,46.981c-2.106,3.347 -2.75,8.515 -10.715,7.883c7.734,-24.727 24.57,-43.707 38.742,-67.278Zm82.816,51.258c-0.871,14.867 -0.949,29.84 -2.789,44.59c-3.281,26.289 -16.695,36.269 -43.203,33.691c-17.91,-1.738 -35.847,-3.234 -53.73,-5.168c-6.149,-0.656 -12.266,-1.98 -18.262,-3.531c-15.668,-4.051 -25.598,-11.949 -27.434,-30.25c-1.91,-19.008 -7.238,-37.715 -8.293,-56.969c-0.312,-5.543 -0.539,-11.199 0.18,-16.664c2.512,-19.043 7.824,-24.039 27.223,-26.672c27.816,-3.781 55.636,-4.945 83.523,-0.691c6.149,0.945 12.559,1.352 17.879,4.691c4.656,2.914 7.117,7.641 12.246,-0.968c3.176,-5.344 13.324,-0.063 14.594,7.707c0.703,4.226 0.137,8.675 -0.094,13.019c-0.652,12.399 -1.426,24.797 -2.156,37.195l0.316,0.02Zm-95.269,-664.832c-37.656,15.203 -51.551,50.062 -72.426,78.914c10.004,-31.457 24.254,-59.965 52.762,-78.832c5.449,-3.609 11.472,-6.922 19.664,-0.082Zm53.351,436.484c-6.406,-7.957 -3.117,-13.304 0.61,-16.765c14.769,-13.731 22.972,-34.965 45.543,-39.996c-16.684,17.593 -33.067,35.336 -46.153,56.761Zm-84.656,-373.668c2.828,-19.382 19.574,-29.136 29.899,-43.285c3.14,-4.297 6.691,-7.008 15.277,-3.312c-17.863,14.187 -28.223,33.203 -45.176,46.597Zm97.106,303.27c13.117,-15.391 22.082,-34.344 41.492,-47.496c-4.778,13.101 -22.969,34.234 -41.492,47.496Zm-141.028,-231.887c-1.652,2.922 -2.535,5.211 -4.039,6.985c-2.918,3.414 -6.871,3.562 -9.035,-0.153c-2.211,-3.808 1.91,-4.695 4.57,-5.832c2.114,-0.894 3.93,-2.789 8.504,-1Zm86.414,583.582c0.633,-16.679 26.797,-56.695 43.164,-66.027c-1.91,8.82 -32.222,55.183 -43.164,66.027Z" style="fill:#6b4e31;"/>
    <path id="q15" d="M2255.16,2432.84c20.848,8.019 41.067,16.914 59.653,29.894c41.769,29.192 54.472,71.098 51.941,118.602c-2.715,51.078 -30.656,89.191 -68.789,120.789c-4.762,3.953 -10.07,7.246 -14.879,11.149c-25.844,20.925 -56.531,30.511 -88.238,37.511c-13.375,2.949 -26.434,6.782 -39.321,11.262c-34.945,12.16 -61.277,34.66 -79.062,66.957c-9.414,17.098 -11.164,36.633 -15.918,55.195c-1.074,4.184 -1.203,8.629 -2.316,12.805c-1.918,7.152 -7.025,11.68 -13.747,14.094c-15.292,5.469 -47.437,-12.332 -50.515,-28.18c-1.535,-7.855 -2.113,-15.797 -1.137,-24.019c4.02,-33.676 20.25,-61.379 38.899,-88.938c13.953,-20.621 32.682,-35.371 51.171,-50.406c12.906,-10.512 30.379,-13.778 46.543,-18.168c15.563,-4.219 31.27,-7.996 47.067,-11.231c14.273,-2.914 27.121,-8.726 39.137,-16.648c29.398,-19.395 54.476,-43.524 72.507,-73.668c10.422,-17.434 17.395,-36.703 6.18,-57.926c-4.172,-7.863 -4.262,-17.976 -5.828,-27.137c-2.504,-14.718 -10.77,-24.425 -24.387,-30.277c-20.605,-8.848 -41.523,-17.851 -63.773,-19.914c-29.086,-2.719 -56.438,5.879 -81.68,20.422c-29.207,16.836 -47.195,41.476 -51.036,75.543c-1.526,13.543 -3.176,27.066 -4.515,40.609c-0.755,7.66 0.223,13.946 8.227,18.875c8.663,5.344 11.137,18.625 6.984,28.102c-4.047,9.23 -13.113,9.265 -20.722,8.289c-14.766,-1.895 -28.883,-7.172 -41.309,-15.34c-8.418,-5.539 -13.441,-13.594 -12.18,-25.152c0.918,-8.364 -0.812,-17.094 -1.914,-25.575c-2.57,-19.855 -1.633,-39.675 1.102,-59.32c3.547,-25.496 15.019,-46.644 36.113,-62.445c10.805,-8.09 19.62,-18.992 30.813,-26.383c51.503,-34.023 106.703,-36.394 163.949,-17.051c7.054,2.387 13.996,5.114 20.98,7.68Zm-294.797,555.406c7.059,-19.051 25.301,-27.203 44.485,-20.355c13.629,4.867 25.406,10.586 22.426,28.453c-0.508,3.023 1.289,5.789 2.628,8.656c5.934,12.656 3.957,19.586 -6.835,26.34c-17.672,11.059 -50.25,4.918 -62.715,-11.766c-7.864,-10.511 -4.258,-20.906 0.011,-31.328Z" style="fill:#6b4e31;"/>
    <path id="q14" d="M2671.39,900.895l0.297,0.488c-0.176,-1.723 0.425,-4.543 -2.145,-4.246c-16.691,1.976 -33.766,4.957 -47.539,14.301c-11.863,8.042 -23.816,14.605 -37.008,20.125c-18.949,7.925 -30.566,23.054 -32.933,43.949c-2.036,17.965 11.988,28.109 28.203,20.836c2.82,-1.266 5.508,-2.836 8.218,-4.348c23.165,-12.906 46.114,-26.254 69.602,-38.555c9.109,-4.773 19.219,-9.269 29.234,-10.293c18.707,-1.89 37.387,-2.679 56.614,-1.035c31.968,2.738 60.91,9.672 84.148,32.731c6.293,6.261 10.746,3.898 15.516,-1.071c1.683,-1.757 2.554,-4.535 4.484,-5.777c3.715,-2.398 5.594,-11.484 10.914,-6.625c4.918,4.512 -2.644,8.047 -5.582,11.344c-13.062,14.683 -13.16,14.629 -2.914,32.215c0.492,0.832 1.797,1.187 2.766,1.796c5.468,-2.257 9.297,-10.238 16.765,-5.859c0.262,2.918 -0.898,4.227 -2.484,5.289c-10.156,6.746 -13.832,15.09 -12.207,28.137c2.234,17.812 -1.504,35.707 -6.484,53.137c-8.36,29.23 -23.567,52.691 -50.301,69.105c-17.317,10.629 -36.567,18.664 -51.11,33.621c-1.097,1.133 -2.148,3.582 -4.203,1.68c-7.418,-6.867 -14.015,0.152 -20.746,1.383c-17.664,3.187 -35.043,8.148 -52.773,10.734c-15.578,2.262 -30.285,5.551 -42.606,15.918c2.008,-6.539 -0.3,-9.465 -7.175,-8.488c-60.165,8.484 -111.032,50.527 -124.528,113.426c-1.719,8.015 -1.035,16.097 0.406,23.988c1.215,6.676 3.286,13.883 11.223,15.351c7.613,1.399 13.106,-3.539 16.918,-9.324c6.098,-9.277 11.652,-18.945 16.988,-28.699c5.91,-10.793 9.723,-23.152 17.289,-32.539c14.215,-17.66 29.692,-34.453 47.2,-49.106c-0.411,2.809 -3.954,9.563 2.933,5.801c12.387,-6.762 25.688,-8.754 38.93,-11.73c19.676,-4.422 41.105,2.609 59.687,-9.153c0.735,-0.464 2.317,0.453 3.512,0.657c24.723,4.035 47.512,-3.391 70.274,-11.551c7.152,-2.574 11.121,-9.262 18.71,-11.625c37.18,-11.531 62.844,-35.86 77.297,-72.047c5.77,-14.441 10.946,-29.027 14.516,-44.195c1.488,-6.328 6.105,-12.059 3.633,-19.903c-9.664,1.543 -11.703,12.727 -20.281,14.567c-0.985,-3.809 2.164,-5.34 4.043,-7.668c23.98,-29.649 24.195,-30.582 14.394,-67.063c-1.613,-5.992 -3.227,-12.035 -5.555,-17.773c-15.218,-37.477 -37.968,-67.281 -77.035,-83.762c-23.347,-9.859 -48.258,-11.336 -71.832,-18.965c-6.883,-2.215 -11.496,1.184 -15.89,6.5c-9.602,11.614 -19.825,22.711 -29.797,34.024c3.254,-14.891 16.715,-23.75 20.343,-37.567c-1.14,-2.808 -3.179,-2.597 -4.902,-2.976c-14.324,-3.188 -25.578,4.16 -37.027,10.84Zm145.828,320.683c-13.27,5.602 -26.086,11.938 -39.516,16.469c-22.433,7.562 -46.019,8.965 -69.41,11.726c-27.316,3.219 -55.34,0.762 -81.926,11.028c-11.258,4.344 -21.097,9.617 -29.922,17.875c-24.89,23.293 -41.097,52.617 -57.535,81.711c-6.343,11.222 -14.418,18.898 -27.402,18.582c-13.008,-0.317 -25.02,-11.18 -28.715,-25.36c-6.996,-26.875 0.027,-52.113 12.859,-75.242c27.594,-49.726 72.528,-74.816 127.106,-83.82c13.32,-2.203 25.023,-4.422 33.906,-15.848c4.867,-6.258 9.375,-4.906 10.055,3.516c0.586,7.215 3.527,6.64 7.973,5.723c48.988,-10.161 96.484,-23.426 133.726,-60.063c24.242,-23.848 31.465,-54.277 33.531,-86.227c0.582,-9.109 -2.777,-19.007 -4.234,-28.558c-0.813,-5.274 -0.813,-15.086 -11.875,-12.207c-1.797,0.476 -4.086,-0.379 -3.617,-2.793c3.066,-15.695 -9.996,-20.477 -19.309,-25.758c-29.082,-16.508 -61.246,-18.109 -93.762,-15.699c-29.902,2.207 -55.222,16.496 -80.441,31.004c-12.91,7.422 -25.707,15.082 -38.957,21.843c-26.445,13.489 -51.133,-1.589 -51.207,-31.191c-0.063,-23.312 9.336,-39.801 29.906,-53.578c34.805,-23.34 72.879,-36.773 112.844,-45.719c28.789,-6.453 58.07,-8.344 86.445,3.727c3.375,1.441 7.164,2.129 10.836,2.636c53.539,7.422 87.434,39.918 110.977,86.137c7.965,15.637 14.082,31.844 16.945,49.012c1.543,9.176 11.027,16.715 9.063,24.418c-2.305,9.074 -2.938,18.105 -4.465,27.133c-5.262,31.246 -14.332,61.363 -27.36,90.261c-1.5,3.332 -3.586,6.582 -6.05,9.278c-15.446,16.898 -30.215,34.273 -41.407,54.414c-0.586,1.055 -1.347,2.152 -2.308,2.84c-3.985,2.843 -8.071,7.703 -12.899,6.156c-5.836,-1.875 -3.222,-8.426 -3.855,-13.426Zm-385.469,253.715c0.352,4.953 -5.351,7.984 -4.449,13.254c22.59,-5.914 35.41,-18.703 37.801,-37.649c-5.664,-1.132 -9.055,1.895 -12.157,6.094c-5.867,7.918 -13.644,13.703 -21.988,18.77c5.246,-14.047 19.844,-21.313 26.672,-35.52c-4.395,-1.359 -7.867,-3.414 -11.277,-3.32c-16.336,0.437 -38.258,30.336 -34.266,46.578c0.973,3.941 3.754,6.938 7.828,2.902c3.832,-3.8 6.242,-9.074 11.836,-11.109Zm-31.766,-10c5.235,-15.824 13.817,-26.719 24.622,-34.773c5.418,-4.036 5.277,-14.356 15.816,-12.868c11.012,1.547 19.961,6.051 27.645,13.633c13.253,13.082 12.835,28.586 -1.157,44.047c-9.207,10.176 -19.703,18.707 -32.383,24.176c-19.98,8.605 -32.347,1.496 -34.968,-20.168c-0.657,-5.481 -1.008,-11.141 0.425,-14.047Zm453.196,-316.477c3.109,-10.734 12.976,-15.648 19.015,-23.863c-1.964,11.953 -5.621,16.047 -19.293,23.363l0.278,0.5Zm-11.52,12.434c-0.129,5.828 -4.898,7.641 -9.984,11.211c1.375,-6.895 3.285,-11.191 10.254,-10.805l-0.27,-0.406Zm-170.269,-260.355c0.359,4.621 -0.867,8.293 -9.399,10.843c5.196,-4.492 5.516,-8.718 9.711,-10.328c-0.015,-0.027 -0.312,-0.515 -0.312,-0.515Zm181.508,247.421c-1.61,6.168 -4.012,11.657 -11.243,12.934l0.278,0.414c0.375,-7.246 6.175,-9.707 11.258,-12.82c-0.016,-0.028 -0.293,-0.528 -0.293,-0.528Zm-242.379,91.52c2.625,-5.59 4.199,-12.137 11.929,-13.074c-3.98,4.355 -7.953,8.715 -11.929,13.074Z" style="fill:#6b4e31;"/>
    <path id="q13" d="M1117.25,974.727c-0.613,0.882 -1.547,1.691 -1.785,2.66c-0.637,2.652 0.66,4.941 2.898,5.875c2.387,1.004 2.633,-1.149 2.227,-2.828c-0.52,-2.192 -0.941,-4.555 -3.34,-5.707Zm-130.121,-118.895c2.969,8.246 2.051,14.301 7.676,18.035c0.422,-6.285 -3.067,-10.476 -7.676,-18.035Zm116.918,162.324c4.75,9.688 7.773,15.86 11.395,23.246c1.617,-4.937 -0.032,-7.668 -1.438,-10.238c-1.973,-3.617 -1.812,-8.473 -9.957,-13.008Zm-64.273,393.574c-0.875,-5.656 -0.954,-10.886 -7.61,-11.171c-0.941,-0.039 -2.703,1.152 -2.785,1.925c-0.759,6.204 3.223,8.227 10.395,9.246Zm-8.172,-444.378c3.66,-22.047 3.66,-22.047 -5.391,-33.922c4.75,9.621 0.737,20.562 5.391,33.922Zm-6.555,-87.461c-0.855,12.406 3.723,22.214 9.168,33.882c-1.551,-12.539 -2.16,-23.23 -9.168,-33.882Zm-111.383,-52.387c4.383,12.008 5.36,22.391 16.813,31.719c-2.832,-13.707 -5.032,-23.465 -16.813,-31.719Zm107.227,501.309c1.129,13.496 5.804,24.851 17.961,31.64c-5.989,-10.547 -11.982,-21.09 -17.961,-31.64Zm-61.782,-497.977c7.903,26.941 7.903,26.941 18.879,29.094c-4.101,-10.68 -7.183,-21.496 -18.879,-29.094Zm-129.179,220.625c-5.492,-21.168 -12.817,-41.543 -24.871,-59.902c5.027,21.367 14.015,41.035 24.871,59.902Zm206.387,187.801c1.039,-17.262 -4.505,-28.891 -16,-38.735l16,38.735Zm-125.797,-376.199c-0.524,-13.86 -4.942,-26.098 -15.145,-35.922c2.883,12.875 5.379,25.914 15.145,35.922Zm133.855,348.101c4.098,-3.937 4.062,-8.035 2.059,-12.316c-3.41,-7.297 -6.895,-14.567 -10.372,-21.828c-1.359,-2.86 -3.347,-6.418 -6.614,-5.102c-3.549,1.414 -5.308,5.949 -3.034,9.277c6.57,9.61 9.929,21.207 17.961,29.969Zm-21.613,-295.105c0.586,-0.024 1.168,-0.055 1.758,-0.079c-4.243,-12.234 -8.668,-24.398 -12.668,-36.707c-3.918,-12.058 -2.375,-26.824 -19.524,-36.878l30.434,73.664Zm31.469,271.433c6.48,-4.293 7.421,-8.203 5.269,-12.582c-3.238,-6.597 -6.641,-13.144 -10.391,-19.453c-1.632,-2.746 -2.703,-8.07 -7.516,-5.656c-5.042,2.547 -3.421,7.301 -1.398,11.238c4.454,8.707 9.153,17.293 14.036,26.453Zm-99.036,-333.109c-6.441,-11.426 -6.468,-26.242 -22.402,-32.192c-1.398,10.446 5.766,16.52 6.238,24.211c0.715,11.52 7.149,10.68 16.164,7.981Zm156.016,226.383c9.965,-17.493 -5.09,-25.922 -9.738,-39.004c-9.614,17.343 -9.102,19.25 9.738,39.004Zm-294.406,-206.586c-2.801,13.543 6.668,38.539 19.062,54.179c3.563,-22.906 -11.136,-37.375 -19.062,-54.179Zm271.285,264.527c6.223,-20.316 -7.648,-29.746 -13.121,-42.93c-9.102,11.766 -8.199,14.786 13.121,42.93Zm-252.898,-257.047c-0.028,0.012 -0.059,0.024 -0.083,0.043c2.122,5.133 4.114,10.328 6.415,15.387c1.164,2.57 3.718,3.406 6.175,2.351c2.278,-0.976 4.387,-3.218 3.438,-5.793c-4.024,-11.003 -7.141,-22.398 -13.301,-32.523c-1.535,-2.516 -3.945,-2.84 -6.258,-1.094c-1.972,1.477 -3.855,3.348 -2.73,6.196c2.031,5.179 4.219,10.293 6.344,15.433Zm-7.438,295.399c1.039,-0.707 2.078,-1.422 3.121,-2.133c-5.141,-12.442 -9.73,-25.145 -15.582,-37.235c-5.543,-11.461 -7.121,-25.57 -19.777,-32.832c7.582,25.715 19.648,49.082 32.238,72.2Zm272.195,-65.762c5.961,-12.852 5.961,-12.852 -11.441,-39.629c-11.801,15.172 -11.801,15.172 11.441,39.629Zm-295.984,41.969c-7.723,-30.028 -25.273,-61.746 -36.68,-67.621c9.727,23.96 22.539,45.968 36.68,67.621Zm209.676,67.507c-9.754,24.157 11.307,34.657 16.785,51.063c3.883,-15.445 3.883,-15.445 -16.785,-51.063Zm55.246,-56.441c9.617,-5.816 10.355,-13.324 5.277,-22.043c-3.398,-5.824 -6.91,-11.574 -10.562,-17.246c-2.875,-4.453 -5.84,-3.145 -8.598,0.273c-3.508,4.344 -3.43,8.934 -1.023,13.739c4.382,8.754 8.785,17.492 14.906,25.277Zm-193.785,-312.23c1.859,4.503 3.976,8.914 5.504,13.527c1.781,5.391 5.375,6.152 10.003,4.519c4.45,-1.562 4.825,-4.777 3.114,-8.742c-3.899,-8.965 -7.707,-17.957 -11.535,-26.941c-1.786,-4.18 -4.676,-5.152 -8.743,-3.18c-4.058,1.961 -4.847,5.031 -3.226,8.973c1.609,3.961 3.25,7.894 4.883,11.844Zm-79.481,86.812c-0.301,14.145 13.606,47.949 28.34,68.906c0.75,-16.175 -16.375,-57.808 -28.34,-68.906Zm65.68,-53.098c13.945,-8.257 13.98,-8.269 8.777,-19.359c-2.633,-5.602 -5.289,-11.203 -8.199,-16.66c-2.016,-3.774 -3.949,-8.211 -9.77,-5.234c-4.96,2.546 -5.183,6.437 -3.308,10.976c3.992,9.703 8.008,19.402 12.5,30.277Zm-17.984,218.84c0.769,27.133 15.5,49.364 25.984,73.09c5.336,-29.277 -15.391,-49.402 -25.984,-73.09Zm-20.395,-140.07c7.281,-18.934 -2.297,-49.07 -18.359,-64.844c-5.758,6.106 -6.438,12.68 -2.739,20.231c6.746,13.746 13.11,27.664 21.098,44.613Zm32.883,215.937c0.14,-1.781 0.793,-3.722 0.328,-5.347c-5.457,-19.055 -15.461,-36.188 -23.18,-54.285c-2.23,-5.215 -6.554,-8.036 -11.883,-4.918c-5.074,2.961 -2.168,8.058 -0.628,11.582c6.898,15.824 14.277,31.445 21.636,47.062c2.692,5.723 7.024,8.399 13.727,5.906Zm189.648,203.067c-2.766,11.027 2.542,19.195 5.84,27.34c2.223,5.484 6.473,10.824 14.481,5.39c12.679,-8.617 13.394,-9.351 8.339,-18.39c-1.199,-2.145 -3.183,-3.864 -4.289,-6.047c-10.906,-21.516 -23.039,-42.215 -30.168,-65.778c-6.234,-20.648 -17.355,-39.816 -26.32,-59.64c-5.004,17.082 -3.367,32.316 5.527,46.418c12.223,19.367 19.848,41.246 33.329,60.019c4.601,6.395 6.421,14.789 10.96,25.782c-7.597,-6.594 -8.972,-13.707 -17.699,-15.094Zm-206.617,-570.785c-44.883,10.91 -72.371,45.48 -93.18,86.386c-11.011,21.645 -17.847,45.399 -16.152,70.016c3.703,53.801 28.387,95.422 75.375,122.961c4.23,2.48 8.867,4.758 13.602,5.777c8.566,1.832 13.101,-3.015 10.98,-11.488c-2.121,-8.469 -6.191,-16.168 -10.656,-23.695c-16.93,-28.535 -28.778,-59.176 -35.789,-91.516c-3.957,-18.199 -5.395,-36.898 -3.074,-55.516c2.05,-16.539 15.097,-29.718 15.023,-47.054c13.715,-10.422 27.352,-20.93 41.16,-31.227c5.961,-4.445 12.231,-8.48 18.387,-12.648c8.824,-5.965 18.25,-11.078 28.769,-12.715c34.239,-5.297 67.969,-4.137 100.661,9.129c37.308,15.156 58.542,42.937 63.995,82.383c5.364,38.754 -0.007,76.636 -11.402,113.902c-17.519,57.301 -47.711,108.801 -74.972,161.465c-37.594,72.66 -20.379,144.098 34.367,198.48c4.887,4.848 10.422,9.16 16.867,11.414c5.52,1.938 11.102,0.457 15.098,-4.429c4.718,-5.75 -0.278,-9.059 -3.555,-12.309c-15.789,-15.719 -21.801,-35.742 -25.352,-56.828c-3.406,-20.277 -3.437,-40.789 -3.793,-61.27c-0.593,-33.46 5.692,-65.164 22.188,-94.847c16.871,-30.379 36.41,-59.18 52.144,-90.223c28.813,-56.82 38.266,-115.855 22.704,-178.305c-13.954,-55.972 -64.528,-91.226 -108.629,-97.894c-49.11,-7.426 -96.43,-0.055 -144.766,20.051Zm32.41,389.328c-5.437,-7.043 -12.625,-9.141 -22.183,-8.41c-24.551,1.871 -43.008,-9.93 -55.754,-30.098c-23.492,-37.168 -43.285,-76.598 -59.754,-117.09c-17.699,-43.515 -25.957,-89.601 -7.5,-135.816c19.711,-49.387 48.5,-89.918 101.711,-109.168c46.711,-16.903 93.562,-28.289 143.718,-23.711c40.239,3.676 73.711,20.691 102.258,48.176c19.422,18.714 29.766,42.675 34.84,68.711c3.106,15.945 7.649,31.394 13.457,46.41c9.473,24.496 15.703,49.582 17.883,75.754c1.527,18.308 -3.609,35.785 -7.941,52.882c-8.86,34.911 -25,67.239 -45.106,96.903c-7.289,10.754 -8.273,24.808 -19.293,33.269c-2.82,2.168 -2.68,6.746 -2.39,10.578c0.378,5.086 0.003,9.875 -4.926,13.122c-3.422,2.253 -3.617,6.253 -4.5,9.835c-8.11,32.887 -8.532,65.633 1.101,98.375c4.442,15.083 14.996,27.106 20.078,41.84c1.403,4.071 4.219,7.649 5.719,11.692c3.539,9.441 14.695,19.597 6.024,28.82c-10.508,11.184 -24.911,18.934 -41.923,14.918c-9.753,-2.301 -18.925,-6.48 -26.718,-12.77c-25.039,-20.187 -50.27,-40.3 -67.508,-68.195c-26.078,-42.187 -35.59,-87.976 -20.722,-135.43c10.128,-32.324 24.351,-63.835 42.812,-92.66c14.211,-22.195 24.465,-45.941 33.211,-70.55c0.992,-2.805 3.859,-6.243 1.242,-8.571c-10.801,-9.601 -3.476,-19.504 -0.547,-28.847c8.196,-26.141 10.469,-52.707 1.778,-78.645c-6.606,-19.695 -14.825,-39.238 -33.313,-52.211c-9.609,-6.746 -19.328,-11.101 -30.992,-10.226c-21.332,1.609 -41.742,7.851 -60.219,17.8c-20.574,11.09 -31.652,30.739 -38.351,52.914c-12.762,42.176 -7.485,83.512 6.418,124.098c10.613,31.027 22.871,61.492 34.222,92.262c4.496,12.207 2.664,23.476 -8.117,30.14c-6.242,3.868 -2.184,10.95 -8.715,13.899Zm254.071,389.246c-1.172,-12.602 -5.825,-21.379 -15.79,-29.688c-5.476,15.957 7.325,21.227 15.79,29.688Zm12.179,-71.91c-4.015,10.011 -3.664,15.988 1.539,21.722c6.801,7.512 11.887,16.141 14.321,26.301c8.488,-19.879 -8.375,-30.867 -15.86,-48.023Zm-5.871,51.258c2.801,4.902 6.934,12.402 11.375,19.718c1.742,2.871 3.453,7.61 8.039,4.52c3.399,-2.285 3.254,-6.418 1.371,-9.981c-5.429,-10.254 -10.965,-20.457 -16.539,-30.636c-1.359,-2.496 -3.672,-3.348 -5.937,-1.473c-1.778,1.477 -4.407,3.945 -4.106,5.504c0.641,3.402 2.895,6.504 5.797,12.348Zm-33.633,-40.403c0.2,0.489 0.543,2.481 1.664,3.836c4.121,4.961 7.051,13.399 14.809,11.363c6.289,-1.648 7.555,-9.281 7.715,-15.527c0.347,-13.984 -0.004,-27.496 -4.699,-41.469c-3.192,-9.507 -6.68,-11.629 -14.934,-10.793c-9.34,0.95 -11.84,6.758 -11.91,15.344c-0.094,12.547 3.433,24.235 7.355,37.246Zm65.903,-5.926c11.265,21.165 7.121,46.52 3.66,71.672c-1.383,10.118 -12.953,12.227 -18.317,19.703c-2.011,2.805 -5.601,-3.601 -9.195,-4.328c-28.59,-5.722 -42.613,-24.8 -49.242,-51.832c-5.602,-22.816 -13.805,-44.988 -17.473,-68.312c-3.191,-20.281 8.719,-30.844 29.242,-27.328c13.43,2.3 23.047,7.574 32.032,18.816c10.007,12.508 22.715,22.781 29.293,41.609Z" style="fill:#6b4e31;"/>
    <path id="q12" d="M2324.22,1765.67c0.453,3.152 2.496,4.738 4.594,5.562c0.812,0.317 3.339,-1.515 3.742,-2.789c0.949,-3.015 -1.571,-4.265 -3.961,-4.453c-1.445,-0.101 -2.992,1.114 -4.375,1.68Zm2.199,-136.281c-3.363,-8.477 -7.621,-9.239 -14.348,-4.258c4.668,2.121 7.809,5.391 14.348,4.258Zm-6.207,81.574c-0.801,-0.789 -1.164,-1.469 -1.672,-1.59c-2.894,-0.73 -5.887,-2.465 -8.777,-0.691c-1.668,1.015 -1.793,3.23 -0.59,4.8c2.121,2.766 4.527,0.372 6.711,-0.14c1.492,-0.352 2.805,-1.508 4.328,-2.379Zm-126.406,-157.254c3.457,-0.918 5.07,-2.695 5.531,-5.121c0.449,-2.352 2.367,-5.359 -1.516,-6.949c-2.89,3.207 -6.308,5.926 -4.015,12.07Zm55.558,8.258c5.895,0.832 10.676,1.508 13.711,-3.301c0.352,-0.551 -1.359,-3.078 -2.617,-3.84c-6.551,-3.945 -7.683,2.012 -11.094,7.141Zm66.243,77.902c-4.368,-2.215 -8.641,-4.762 -12.981,-0.273c-0.492,0.504 -0.094,2.883 0.574,3.301c4.91,3.132 8.981,1.703 12.407,-3.028Zm1.878,109.043c-5.39,-3.961 -9.167,-9.043 -16.058,-4.715c-0.692,0.442 -0.969,3.153 -0.652,3.325c4.816,2.578 9.726,5.269 16.71,1.39Zm-157.117,-209.07c-4.125,4.894 -5.101,10.293 -3.703,16.269c0.133,0.59 2.192,1.411 2.813,1.086c7.597,-3.937 2.812,-10.254 2.812,-15.668c-0,-0.328 -0.707,-0.652 -1.922,-1.687Zm160.938,116.629c4.887,6.531 9.097,10.5 16.019,10.183c0.039,-13.144 0.039,-13.144 -16.019,-10.183Zm-222.516,444.949c-8.117,-1.137 -14.063,1.941 -18.66,7.906c-0.403,0.52 1.327,3.938 2.363,4.102c8.714,1.328 13.321,-3.645 16.297,-12.008Zm80.16,-562.145c6.387,-5.113 13.332,-7.046 11.321,-14.812c-0.692,-2.66 -5.688,-3 -8.297,-1.945c-8.778,3.55 -3.215,9.394 -3.024,16.757Zm91.653,296.239c-16.02,-19.242 -16.02,-19.242 -24.375,-8.66c7.082,3.253 13.832,7.418 24.375,8.66Zm46.984,-138.961c7.008,1.929 12.297,3.558 17.672,4.801c3.016,0.691 6.465,0.949 6.828,-3.52c0.367,-4.598 -1.98,-6.742 -6.664,-6.305c-5.453,0.496 -11.141,-0.086 -17.836,5.024Zm-296.848,-58.535c5.649,6.605 9.543,11.336 13.661,15.863c1.894,2.082 4.464,2.285 6.437,0.164c2.129,-2.301 4.438,-5.98 1.906,-8.195c-5.48,-4.778 -11.593,-9.453 -22.004,-7.832Zm311.344,40.957c-8.004,-6.16 -14.832,-9.012 -22.933,-10.418c1.46,16.129 1.46,16.129 22.933,10.418Zm-95.195,183.101c-15.07,-22.015 -15.52,-22.133 -27.18,-9.207c8.078,2.735 15.871,5.375 27.18,9.207Zm-85.832,-340.164c-5.742,-3.617 -12.703,-2.586 -13.969,0.676c-2.773,7.133 -0.59,14.777 5.231,21.199c5.015,-7.152 5.894,-14.883 8.738,-21.875Zm87.535,19.235c-5.594,-6.477 -12.297,-10.594 -18.07,-7.52c-5.903,3.141 -6.02,11.125 -4.575,18.816c8.575,-2.648 15.239,-6.394 22.645,-11.296Zm-153.629,430.398c12.801,8.406 23.188,3.793 33.527,0.258c1.711,-0.582 2.629,-2.375 2.395,-4.406c-0.266,-2.383 -2.246,-2.95 -3.977,-3.075c-10.66,-0.707 -20.593,1.871 -31.945,7.223Zm-36.75,-378.141c-0.715,12.02 1.684,22.243 7.952,32.317c10.489,-14.074 9.13,-19.403 -7.952,-32.317Zm170.578,303.442c-14.472,-5.973 -25.652,-14 -41.16,-15.66c19.703,21.441 24.277,23.304 41.16,15.66Zm-69.265,37.66c-12.258,-1.777 -22.118,-2.5 -33.59,0.769c20.765,15.313 20.765,15.313 33.59,-0.769Zm-8.172,-27.375c22.226,17.766 26.351,18.363 39.511,5.594c-13.152,-1.856 -24.488,-6.481 -39.511,-5.594Zm-136.434,-173.887c9.149,6.387 15.145,7.883 31.375,7.856c-1.601,-14.754 -1.609,-14.871 -13.922,-13.137c-6.043,0.852 -12.125,1.801 -17.453,5.281Zm86.094,189.168c14.172,-0.894 25.512,-1.625 37.547,-2.394c-17.457,-18.52 -19.297,-18.496 -37.547,2.394Zm179.211,-121.605c10.937,3.875 20.594,11.316 36.402,11.394c-7.808,-7.418 -12.965,-12.707 -18.551,-17.531c-9.781,-8.43 -9.89,-8.297 -17.851,6.137Zm-201.156,271.113c25.894,5.767 34.757,3.566 26.257,-16.094c-8.59,4.133 -17.348,7.731 -26.257,16.094Zm241.929,-468.43c-5.062,-10.871 -13.121,-16.601 -19.965,-23.261c-4.527,-4.395 -8.925,-3.161 -12.504,1.64c-3.964,5.305 -0.25,7.992 3.883,9.883c8.746,4.008 16.879,9.688 28.586,11.738Zm-200.097,-75.465c-8.692,-2.289 -15.379,1.907 -23.926,3.825c4.429,8.879 8.547,15.879 15.031,22.164c5.191,-8.438 7.07,-16.774 8.895,-25.989Zm-38.645,472.18c10.695,5.063 19.258,4.652 27.848,4.039c4.832,-0.344 8.109,-2.664 9.601,-7.332c1.649,-5.176 0.856,-9.324 -5.672,-7.539c-9.973,2.731 -20.632,3.66 -31.777,10.832Zm-34.445,30.149c10.609,-4.997 19.535,-9.207 30.156,-14.207c-30.5,-11.856 -31.27,-11.524 -30.156,14.207Zm79.508,-454.778c18.07,-9.14 18.378,-11.953 4.847,-33.023c-4.894,10.441 -8.281,20.34 -4.847,33.023Zm186.781,250.446c-9.949,-6.508 -21.16,-9.774 -36.168,-13.758c8.398,9.992 14.144,17.058 20.16,23.879c3.465,3.941 7.262,4.086 10.719,-0.293c2.254,-2.86 4.957,-5.461 5.289,-9.828Zm-201.504,194.425c-14.868,3.039 -27.982,6.567 -42.438,14.934c11.55,3.238 19.996,3.516 28.489,2.988c12.062,-0.746 12.054,-0.824 13.949,-17.922Zm184.988,-245.402c12.469,4.437 23.82,12.367 39.543,12.043c-6.035,-10.262 -15.738,-13.813 -23.25,-19.68c-10.129,-7.922 -10.535,-7.418 -16.293,7.637Zm52.223,-30.328c1.613,-5.707 3.191,-9.758 3.859,-13.949c1.43,-8.957 -0.847,-11.078 -9.672,-8.438c-6.656,1.988 -14.222,2.027 -19.972,7.899c6.496,7.761 15.605,9.867 25.785,14.488Zm-166.946,153.863c-13.578,-20.656 -25.152,-23.992 -41.667,-4.172c13.453,0.969 26.433,5.438 41.667,4.172Zm36.348,-33.281c16.348,24.051 24.606,30.785 41.274,12.902c-13.289,-5.344 -26.024,-11.07 -41.274,-12.902Zm-216.937,-185.57c13.593,7.851 26.367,12.753 40.148,18.054c0.059,-7.297 5.926,-15.133 -1.531,-17.961c-11.699,-4.445 -24.528,-6.621 -38.617,-0.093Zm287.086,174.796c-11.707,-7.855 -23.942,-13.347 -38.614,-15.003c0.692,9.679 7.403,13.851 12.543,18.722c12.5,11.817 12.789,11.606 26.071,-3.719Zm-286.079,-77.722c7.438,8.957 14.344,18.254 25.856,15.574c7.945,-1.848 10.836,-10.621 11.238,-19.754c-12.605,-0.359 -24.687,-2.621 -37.094,4.18Zm71.207,-189.836l-0,-40.965c-23.91,14.023 -23.957,14.07 -8.415,32.836c2.255,2.73 3.31,6.684 8.415,8.129Zm17.426,-32.254c-5.309,15.961 -3.98,30.227 0.176,44.75c19.148,-9.039 19.172,-9.055 11.148,-26.93c-2.75,-6.113 -4.464,-12.906 -11.324,-17.82Zm-111.531,188.055c1.43,17.035 4.063,22.211 12.98,21.714c16.063,-0.91 32.083,-2.906 50.215,-4.648c-14.652,-9.219 -42.386,-16.336 -63.195,-17.066Zm69.797,-114.957c-4.527,-17.137 -8.645,-32.696 -13.414,-50.743c-11.125,9.914 -19.367,18.278 -23.844,29.661c10.832,10.535 21.551,18.125 37.258,21.082Zm-49.477,-4.707c-7.73,13.507 -16.949,24.773 -19.273,40.519c17.558,4.188 34.531,3.481 53.805,3.473c-9.649,-17.051 -18.754,-31.742 -34.532,-43.992Zm91.024,305.918c-18.739,19.132 -34.547,38.136 -37.477,66.187c10.809,-4.086 21.039,-5.445 29.375,-12.227c-4.415,-5.429 -13.922,-5.23 -11.816,-13.898c1.574,-6.48 8.264,-7.102 13.273,-8.769c8.192,-2.719 16.766,-4.266 25.125,-6.481c3.614,-0.953 8.508,0.715 10.852,-4.258c-9.367,-7.136 -20.611,-10.207 -29.332,-20.554Zm-115.129,-245.637c-2.469,11.32 -3.223,21.644 -2.344,32.156c0.465,5.57 2.035,9.399 8.527,9.649c19.563,0.753 37.516,-5.43 60.176,-10.77c-23.906,-14.207 -44.972,-22.23 -66.359,-31.035Zm77.258,398.262c5.632,25.464 13.797,22.972 38.109,6.773c-13.648,-2.258 -26.079,-4.316 -38.508,-6.367c-1.054,-6.628 0.633,-11.832 6.73,-15.633c6.192,-3.858 11.938,-8.426 19.886,-14.129c-12.256,-3.198 -22.46,-5.855 -33.768,-8.809c0.25,14.418 -1.328,27.267 7.551,38.165Zm121.699,-119.422c-15.637,-0.305 -27.184,-0.086 -27.461,16.097c-0.031,1.489 -3.738,2.774 -5.492,4.41c-4.746,4.43 -8.594,10.348 -7.235,16.36c1.625,7.094 3.321,11.375 -4.8,16.414c-4.551,2.828 -9.602,11.539 -1.329,18.738c4.747,4.133 3.333,9.946 -1.21,12.68c-9.625,5.794 -4.903,14.277 -5.321,21.766c-0.203,3.66 1.676,5.601 5.84,4.816c9.301,-1.754 9.649,3.056 6.481,9.609c-4.84,10.055 -9.571,20.2 -15.102,29.879c-6.293,11.008 -17.31,14.02 -28.828,13.004c-11.031,-0.988 -21.875,-4.039 -32.817,-6.113c-4.976,-0.949 -6.011,-4.942 -8.324,-8.75c-16.183,-26.66 -19.176,-55.899 -17.73,-86.008c2.121,-44.414 20.703,-81.043 53.074,-111.207c17.348,-16.172 36.164,-29.715 57.168,-41.117c20.984,-11.387 42.781,-21.028 63.578,-32.653c6.191,-3.453 14.27,-4.785 15.762,-14.144c0.629,-3.992 5.015,-5.25 8.957,-5.18c5.422,0.074 10.191,-2.121 13.09,-6.094c14.347,-19.644 34.886,-34.382 45.336,-57.082c4.543,-9.863 12.25,-18.82 8,-31.171c-1.032,-3 3.355,-4.934 4.55,-7.567c1.75,-3.855 4.579,-10.746 3.188,-11.933c-11.289,-9.625 -0.024,-19.235 -1.121,-27.973c-3.891,-31.09 -7.582,-62.07 -36.75,-83.828c-15.879,-11.848 -31.563,-19.117 -50.481,-21.039c-3.269,-0.332 -6.183,-0.922 -8.425,-3.145c-3.016,-2.984 -6.747,-3.566 -10.356,-2.742c-30.805,6.977 -62.445,11.941 -86.59,35.336c-10.23,9.922 -21.23,19.105 -30.992,29.453c-18.273,19.344 -23.68,44.277 -21.41,69.02c1.125,12.328 1.808,24.875 2.902,37.289c0.485,5.484 -0.02,11.14 4.61,15.59c3.018,2.914 3.613,7.691 0.031,9.734c-10.875,6.191 -12.68,17.844 -17.922,27.398c-8.602,15.688 -20.168,20.137 -35.371,10.262c-18.199,-11.828 -34.824,-25.922 -42.625,-47.609c-2.453,-6.813 -2.883,-14.825 -10.09,-19.36c-1.203,-0.761 -2.426,-3.929 -1.879,-4.675c9.863,-13.364 3.688,-28.645 4.77,-42.883c0.906,-11.856 3.324,-22.528 7.812,-33.504c6.278,-15.352 19.242,-27.742 20.09,-45.422c8.289,-4.25 13.633,-11.281 19.016,-18.691c16.984,-23.375 38.703,-42.137 62.273,-58.317c23.18,-15.91 50.617,-19.57 77.984,-22.062c7.383,-0.668 14.825,-0.071 21.606,-4.313c3.875,-2.43 8.523,-2.492 12.101,0.902c7.754,7.332 17.946,7.79 27.442,9.766c20.98,4.348 39.547,13.344 57.863,24.5c29.031,17.688 50.141,43.543 74.137,66.481c5.652,5.406 1.918,12.578 5.516,18.746c4.046,6.945 12.621,12.125 12.988,19.242c0.371,7.308 2.859,14.851 1.492,21.812c-1.766,9.004 15.48,11.016 6.648,21.84c-6.183,7.559 -1.097,16.746 -1.964,25.16c-1.973,18.938 -2.543,38.067 -11.11,55.754c-3.519,7.254 -3.402,14.457 3.985,19.903c3.527,2.593 8.07,5.664 6.609,10.285c-1.793,5.687 -8.164,5.523 -12.77,4.933c-7.753,-0.996 -10.898,2.938 -14.121,8.95c-20.843,38.8 -51.172,68.222 -90.097,88.527c-24.192,12.625 -49.364,23.391 -71.657,39.512c-6.597,4.769 -11.8,9.203 -3.519,20.414Zm-116.289,280.117c-4.352,-0.414 -9.215,-4.219 -12.949,1.242c-0.493,0.731 -0.25,2.945 0.293,3.231c5.066,2.664 8.793,-0.614 12.656,-4.473Zm9.437,-15.336c24.12,3.715 37.328,0.949 50.782,-9.305c-6.184,-3.855 -13.875,-5.523 -19.289,-2.867c-10.154,4.981 -20.935,7.77 -31.493,12.172Zm-22.007,67.523c11.659,14.875 14.339,15.707 26.039,8.375c7.164,-4.484 14.062,-9.394 21.07,-14.109c-0.281,-0.73 -0.57,-1.461 -0.848,-2.199c-14.824,2.543 -29.645,5.09 -46.261,7.933Zm79.515,-62.496c-19.941,8.481 -39.075,16.61 -60.524,25.719c22.087,5.977 39.04,-6.191 57.497,-4.73c2.765,0.218 3.781,-2.852 3.883,-5.36c0.195,-4.769 2.742,-9.586 -0.856,-15.629Zm-27.008,-30.754c4.332,0.286 8.7,0.325 12.996,0.891c19.543,2.582 30.832,16.734 29.032,36.039c-1.145,12.227 -7.43,23.793 -4.696,36.52c-11.285,15.992 -19.281,35.312 -38.468,43.804c-17.286,7.653 -34.942,6.953 -51.575,-3.418c-16.918,-10.558 -24.648,-25.976 -22.992,-45.539c2.004,-23.676 10.035,-44.48 30.903,-58.527c3.71,-2.5 7.182,-4.668 11.582,-5.391c11.015,-1.801 21.921,-4.488 33.218,-4.379Z" style="fill:#6b4e31;"/>
    <path id="q11" d="M2753.52,1983.02c13.214,-4.04 21.906,-9.868 29.078,-18.125c-8.836,5.605 -20.16,7.226 -29.078,18.125Zm-271.34,-20.032c-23.453,6.317 -38.418,21.196 -45.899,43.551c16.75,-13.027 34.262,-25.18 45.899,-43.551Zm272.844,-312.832c-1.106,-1.691 -2.219,-1.961 -3.497,-1.043c-20.683,14.77 -40.894,30.133 -58.996,48.067c-1.996,1.984 -5.925,3.726 -2.8,7.273c2.878,3.266 5.515,0.508 7.847,-1.473c17.465,-14.871 34.957,-29.707 52.317,-44.714c2.472,-2.133 6.285,-3.942 5.129,-8.11Zm-209.875,361.891c25.937,-5.082 38.777,-25.734 54.753,-42.063c1.157,-1.183 1.622,-3.625 -0.238,-4.859c-1.418,-0.941 -3.363,-1.426 -5.082,-1.477c-3.336,-0.097 -5.789,2.082 -7.894,4.297c-13.528,14.258 -26.969,28.606 -41.539,44.102Zm-119.36,24.641c35.844,-21.274 89.801,-67.508 94.934,-80.407c-35.535,22.196 -64.629,52.129 -94.934,80.407Zm387.098,-297.645c5.242,-5.785 10.808,-8.52 6.672,-13.156c-3.735,-4.172 -7.836,-0.074 -11.211,2.371c-12.469,9.027 -24.989,17.984 -37.239,27.277c-6.847,5.207 -13.375,10.875 -19.73,16.668c-2.523,2.301 -2.133,5.887 -0.402,8.551c2.336,3.582 5.187,1.742 7.711,-0.184c19.046,-14.582 38.089,-29.183 54.199,-41.527Zm-10.168,-23.055c3.265,-2.996 6.527,-5.683 3.148,-9.675c-2.488,-2.946 -5.547,-1.442 -8.175,0.414c-19.161,13.589 -38.309,27.179 -57.473,40.753c-3.742,2.657 -4.078,5.915 -1.731,9.575c2.426,3.761 5.711,4.699 9.332,1.894c18.512,-14.402 36.95,-28.902 54.899,-42.961Zm-33.508,-39.812c2.047,-2.778 7.871,-4.899 4.531,-9.977c-4.078,-6.199 -8.722,-1.215 -12.925,0.625c-2.227,0.961 -4.372,2.348 -6.243,3.906c-10.484,8.696 -20.871,17.504 -31.297,26.286c-5.683,4.797 -11.445,9.496 -16.984,14.453c-2.684,2.414 -2.836,5.308 0.145,7.832c2.121,1.781 4.367,1.945 6.621,0.203c18.597,-14.34 37.195,-28.695 56.152,-43.328Zm-204.34,-87.875c-34.152,6.953 -71.539,42.226 -72.738,66.574c23.703,-21.695 46.816,-42.848 72.738,-66.574Zm46.008,3.929c-1.168,-1.332 -2.352,-2.671 -3.52,-4.003c-6.199,10.027 -17.308,13.687 -25.453,21.328c-18.961,17.777 -38.074,35.379 -58.277,51.793c-12.484,10.132 -24.008,21.476 -35.793,32.453c-2.578,2.41 -5.746,5.316 -1.574,9.965c41.558,-37.196 83.09,-74.364 124.617,-111.536Zm49.723,96.172c8.304,8.539 14.246,7.578 21.289,2.153c19.07,-14.676 35.984,-31.766 54.328,-47.242c2.496,-2.11 3.523,-4.961 1.515,-10.454c-30.253,12.379 -49.64,38.989 -77.132,55.543Zm-66.332,-106.293c-20.375,5.664 -103.286,81.188 -110.996,101.418c39.121,-34.226 77.261,-65.32 110.996,-101.418Zm66.148,381.895c-14.512,2.379 -31.406,-4.41 -42.691,5.277c-10.407,8.918 -22.231,18.52 -28.387,32.66c9.203,3.145 16.969,4.602 23.93,-1.457c14.82,-12.933 31.07,-23.929 47.148,-36.48Zm128.777,-268.164c-0.238,-2.008 6.321,-4.317 1.696,-9.434c-4.016,-4.449 -7.157,-2.156 -11.199,0.09c-20.102,11.133 -36.625,27.094 -55.204,40.281c-4.464,3.161 -4.386,6.852 -1.351,11.11c3.32,4.679 7.586,4.472 11.14,1.375c17.211,-15.008 37.34,-26.196 54.918,-43.422Zm-28.582,113.566c23.043,-16.015 46.461,-31.617 68.246,-49.551c3.868,-3.183 5.411,-6.48 2.008,-10.96c-3.136,-4.133 -6.828,-2.454 -9.664,-0.379c-20.351,14.914 -40.633,29.945 -60.687,45.25c-5.285,4.019 -5.145,9.367 0.097,15.64Zm2.61,29.895c16.304,-10.848 31.722,-20.746 46.73,-31.235c9.61,-6.703 18.66,-14.23 27.891,-21.48c4.82,-3.785 5.043,-8.91 1.402,-13.023c-3.148,-3.583 -6.914,-0.18 -9.746,1.89c-20.937,15.301 -43.355,28.457 -63.519,44.93c-7.133,5.836 -6.02,10.742 -2.758,18.918Zm79.402,-37.278c-26.941,14.954 -51.41,33.79 -77.418,50.192c-7.246,4.562 -7.793,11.633 -7.844,19.328c9.262,-1.207 15.051,-7.398 21.739,-11.57c19.855,-12.414 40.097,-24.313 58.34,-39.168c5.976,-4.883 12.148,-9.414 5.183,-18.782Zm1.734,31.27c-23.707,14.59 -45.89,29.141 -68.953,42.133c-18.894,10.64 -33.769,24.437 -44.297,45.746c13.122,-5.973 23.25,-13.668 33.793,-20.668c23.665,-15.707 47.403,-31.305 71.067,-47.012c6.137,-4.074 13.012,-7.879 8.39,-20.199Zm-13.984,74.699c-8.07,2.606 -156.668,92.196 -161.93,97.563c11.301,0.793 21.907,1.289 30.868,-5.344c35.39,-26.211 75.183,-45.156 112.257,-68.57c8.852,-5.59 15.629,-11.844 18.805,-23.649Zm-198.07,-221.707c9.238,1.504 14.828,-0.312 20.597,-5.027c19.176,-15.695 39.153,-30.391 56.75,-48.012c10.903,-10.914 10.782,-13.055 -2.906,-20.449c-4.535,-2.449 -7.777,-2.258 -11.808,0.637c-8.047,5.777 -16.739,10.687 -24.532,16.761c-25.929,20.168 -51.976,40.203 -77.156,61.274c-14.633,12.234 -31.066,22.906 -43.762,40.472c7.692,-1.113 11.637,-4.015 15.493,-7.003c21.519,-16.711 43.226,-33.192 64.449,-50.27c19.793,-15.93 39.113,-32.445 58.535,-48.832c4.594,-3.875 9.855,-7.578 14.402,-1.863c4.692,5.894 -0.476,10.09 -5.347,13.336c-4.125,2.754 -8.485,5.191 -12.399,8.207c-17.051,13.152 -33.976,26.453 -52.316,40.769Zm-1.731,318.445c10.719,6.766 17.547,-1.187 24.325,-5.148c31.511,-18.402 62.402,-37.875 93.878,-56.332c28.918,-16.945 55.079,-37.867 83.024,-56.195c6.609,-4.34 13.113,-9.293 9.445,-18.555c-3.574,-1.633 -5.406,0.281 -7.406,1.59c-52.25,34.305 -104.231,68.992 -158.004,100.961c-15.695,9.34 -33.816,16.054 -45.262,33.679Zm53.157,-401.527c-6.219,-3.48 -8.832,-0.562 -11.735,1.207c-28.668,17.477 -53.777,39.762 -80.101,60.367c-24.348,19.075 -50.95,35.508 -71.621,59.098c-1.922,2.191 -4.676,4.563 -7.934,1.984c-3.148,-2.492 -1.934,-5.472 -0.102,-8.136c4.235,-6.192 9.547,-11.282 15.454,-15.953c42.773,-33.836 85.445,-67.821 128.078,-101.84c2.605,-2.082 6.695,-3.813 4.617,-8.528c-2.817,-1.5 -4.695,0.262 -6.785,1.532c-23.407,14.179 -44.844,30.98 -65.285,49.07c-23.227,20.535 -48.657,38.527 -70.153,61.062c-5.164,5.414 -10.242,10.856 -13.859,17.434c-2.899,5.273 -1.867,9.594 3.945,12.031c8.012,3.356 14.785,6.492 23.324,-1.812c30.243,-29.457 64.703,-53.989 97.118,-80.934c18.488,-15.359 36.699,-31.051 55.039,-46.582Zm-138.368,362.848c-0.855,-1.199 -1.714,-2.403 -2.57,-3.59c-42.754,31.531 -86.601,61.664 -123.59,100.75c5.067,9.074 11.653,17.23 19.703,24.161c11.645,10.046 24.582,11.304 37.719,3.801c12.481,-7.113 20.926,-22.888 21.039,-39.301c-3.597,-0.355 -5.457,2.355 -7.703,4.358c-8.766,7.825 -17.473,15.719 -26.32,23.45c-3.43,2.988 -6.789,9.386 -12.071,4c-6.836,-6.95 2.551,-10.035 5.454,-12.668c18.363,-16.598 37.488,-32.352 56.351,-48.407c19.801,-16.859 37.508,-35.675 53.336,-56.277c-2.176,0.317 -3.805,1.164 -5.074,2.391c-35.539,34.508 -74.676,64.929 -111.453,98.035c-3.477,3.141 -6.942,9.044 -12.106,3.719c-5.281,-5.473 0.641,-8.581 4.34,-11.567c30.461,-24.437 58.805,-51.285 88.035,-77.125c5.387,-4.777 9.961,-10.465 14.91,-15.73Zm207.778,-339.508c35.965,33.664 56.246,59.277 75.558,85.973c9.055,12.527 15.903,26.281 21.758,39.875c4.485,10.414 7.254,23.148 8.145,34.882c0.871,11.637 2.902,23.336 2.41,35.118c-0.313,7.257 -2.02,14.765 9.613,16.035c4.188,0.461 5.656,7.515 -0.238,9.633c-12.692,4.546 -13.656,14.894 -13.684,25.5c-0.027,18.421 -11.547,33.879 -12.797,51.91c-11.859,9.148 -19.57,22.125 -30.086,32.543c-50.597,50.203 -113.191,66.207 -182.132,63.976c-16.547,-0.535 -33.047,-2.246 -49.594,-2.758c-10.973,-0.339 -20.27,4.079 -28.453,11.715c-6.336,5.918 -11.77,14.973 -23.508,9.426c-3.703,-1.746 -6.43,3.219 -8.094,6.293c-5.59,10.353 -10.957,20.833 -15.965,31.473c-6.386,13.57 -16.113,23.621 -30.265,28.586c-15.258,5.359 -29.758,2.875 -41.489,-8.352c-12.128,-11.609 -21.804,-25.391 -31.132,-39.343c-3.829,-5.727 -5.278,-11.704 0.39,-16.755c5.102,-4.55 5.821,-10.519 7.684,-16.402c5.422,-17.125 11.133,-33.969 22.707,-48.519c19.719,-24.825 45.66,-34.668 76.351,-35.418c28.579,-0.7 56.789,2.402 85.102,5.89c27.141,3.344 54.449,4.242 80.828,-5.711c16.109,-6.07 30.621,-15.695 39.676,-29.55c6.754,-10.336 9.351,-23.348 20.883,-30.665c1.265,-0.812 2.168,-3.39 2.031,-5.039c-0.965,-11.586 -1.07,-22.839 7.742,-32.054c0.32,-0.336 0.27,-1.239 0.125,-1.809c-2.207,-8.914 -9.832,-15.84 -2.808,-27.586c4.355,-7.273 -2.813,-18.879 -5.809,-28.351c-3.242,-10.235 -8.695,-19.024 -15.008,-27.594c-5.933,-8.047 -13.394,-14.742 -19.254,-22.66c-6.719,-9.082 -19.652,-9.891 -25.051,-20.696c-1.824,-3.636 -6.46,-1.531 -9.808,0.789c-5.637,3.911 -10.649,1.622 -10.668,-4.414c-0.055,-11.918 -7.449,-10.449 -13.543,-7.597c-17.914,8.394 -38.27,11.25 -53.832,25.144c-12.68,11.34 -28.609,16.961 -44.832,21.532c-12.492,3.507 -24.766,2.542 -36.141,-3.266c-16.922,-8.656 -29.574,-23.051 -44.386,-34.563c-0.895,-0.703 -2.114,-2.57 -1.833,-2.961c8.02,-11.406 -3.855,-24.238 3.708,-36.64c8.589,-14.137 12.148,-31.063 21.742,-45.035c7.086,-10.321 14.644,-20.231 25.355,-26.891c20.035,-12.457 40.625,-23.68 64.211,-28.496c8.692,-1.777 17.18,-2.582 25.801,-1.477c9.293,1.176 18.402,2.067 27.648,-0.629c8.254,-2.417 16.325,0.684 23.43,3.922c38.676,17.625 77.234,30.614 97.512,51.016Zm-402.879,611.039c6.586,-3.531 12.113,-7.129 13.48,-14.332l-13.48,14.332Zm20.871,-65.641c-0.535,-0.214 -1.113,-0.664 -1.606,-0.593c-3.418,0.504 -4.992,3.058 -5.878,5.976c-0.29,0.965 0.488,2.262 0.769,3.403c1.836,-1.422 3.813,-2.696 5.457,-4.317c1.149,-1.121 2.457,-2.535 1.258,-4.469Zm25.586,19.661c-7.492,3.316 -12.231,9.91 -16.184,17.207l16.184,-17.207Zm-50.727,-1.801c-6.679,4.359 -11.758,7.98 -10.113,16.605c5.629,-3.578 11.41,-6.043 10.113,-16.605Zm19.063,54.367c13.265,-0.656 15.969,-7.555 20.988,-16.125c-11.215,1.707 -14.285,8.695 -20.988,16.125Zm-29.465,-16.59c17.016,-8 17.016,-8 17.152,-19.348c-7.058,5.477 -13.23,10.52 -17.152,19.348Zm61.637,-17.125c17.183,-4.25 18.738,-5.976 17.578,-19.43c-6.914,5.606 -12.703,11.387 -17.578,19.43Zm4.332,-46.484c-17.871,13.617 -31.547,28.097 -36.828,40.054c14.277,-13.242 25.003,-25.261 36.828,-40.054Zm16.394,-5.196c5.731,4.645 10.625,11.559 14.774,19.332c6.015,11.258 6.207,20.098 -0.934,32.364c-7.848,13.48 -13.285,27.551 -28.355,34.726c-18.86,8.989 -37.598,14.977 -58.625,5.754c-10.836,-4.75 -20.793,-12.09 -24.739,-21.23c-4.281,-9.926 -4.492,-23.196 2.805,-34.129c14.066,-21.078 32.648,-37.035 55.199,-48.215c14.473,-7.176 26.18,-3.668 39.875,11.398Z" style="fill:#6b4e31;"/>
    <path id="q10" d="M3163.28,318.043c15.805,-3.828 22.078,-9.543 29.078,-26.879c0.957,-2.348 1.5,-5.129 4.231,-5.512c3.746,-0.504 5.195,2.621 6.328,5.485c0.672,1.687 1.383,3.679 1.121,5.379c-1.816,11.75 5.367,13.82 14.516,13.66c9.836,-0.176 20.019,1.101 28.859,-4.774c5.109,-3.39 9.914,-2.707 13.012,1.883c4.246,6.274 -2.278,7.77 -5.742,10.922c-7.731,7.043 -6.383,12.891 3.855,15.668c7.113,1.922 14.617,2.582 21.988,3.262c5.75,0.523 13.293,-4.309 16.395,3.789c3.351,8.722 -6.578,8.801 -10.473,12.519c-9.738,9.309 -10.34,17.68 -0.551,26.637c3.907,3.57 10.415,4.887 10.415,12.453c-3.067,1.715 -6.243,3.531 -9.454,5.281c-12.218,6.657 -14.429,18.262 -5.296,28.836c1.589,1.836 4.261,2.735 5.812,4.59c4.105,4.899 3.574,8.824 -2.891,11.336c-2.371,0.922 -4.769,0.781 -7.097,1.211c-11.032,2.066 -14.028,7.563 -11.184,18.43c1.379,5.281 7.371,8.84 5.473,15.535c-9.016,3.754 -20.012,0.836 -28.395,6.891c-10.976,7.941 0.258,18.273 -1.597,26.898c-7.067,4.262 -15.563,-0.434 -21.594,6.059c-6.602,7.105 2.223,15.738 -2.977,23.242c-3.754,-1.293 -7.297,-2.336 -10.699,-3.707c-18.973,-7.621 -21.098,-7.047 -31.84,10.48c-2.949,4.813 -6.051,3.664 -8.695,0.598c-3.234,-3.75 -6.051,-7.664 -10.399,-10.426c-13.554,-8.598 -22.98,-7.141 -33.64,6.102c-2.543,3.152 -5.297,3.297 -7.84,1.254c-2.848,-2.29 -4.637,-5.891 -7.492,-8.165c-11.949,-9.523 -33.36,-11.671 -39,-1.992c-4.289,7.379 -7.676,7.141 -14.231,6.407c-21.902,-2.454 -30.175,3.05 -37.953,23.14c-1.441,3.727 -1.84,6.981 -0.988,10.719c1.492,6.582 -2.852,8.98 -8.027,10.152c-3.598,0.824 -7.399,0.739 -11.094,1.184c-22.738,2.805 -26.379,10.703 -13.871,29.976c0.347,0.52 0.758,0.985 1.105,1.5c4.071,6 2.539,9.93 -3.906,13.274c-18.516,9.566 -18.422,9.723 -15.371,30.027c0.18,1.211 0.66,2.645 0.23,3.637c-5.414,12.504 3.414,15.152 12.203,17.457c8.047,2.117 16.032,2.383 22.918,9.402c4.383,4.489 17.594,7.867 19.922,2.473c4.918,-11.379 14.512,-9.996 22.371,-13.289c12.856,-5.379 14.618,-7.039 13.895,-21.59c-0.289,-5.758 2.242,-9.227 5.566,-13.047c6.418,-7.363 14.348,-14.297 8.606,-25.902c-1.285,-2.602 0.488,-4.801 3.125,-5.606c5.199,-1.593 9.883,-4.023 15.98,-3.558c14.715,1.125 14.754,0.558 19.387,-13.512c1.168,0.32 2.668,0.285 3.441,1.016c8.024,7.613 15.575,18.101 25.739,2.121c1.308,-2.063 4.547,-0.715 6.957,0.062c8.468,2.699 17.289,2.332 25.808,1.309c14.614,-1.762 29.137,-3.512 43.907,-4.078c8.281,-0.324 19.515,1.051 24.574,-6.012c8.422,-11.746 20.207,-12.934 32.176,-15.602c22.191,-4.953 23.222,-6.207 19.211,-28.484c-1.208,-6.664 0.761,-8.957 6.812,-10.078c7.293,-1.352 14.754,-2.594 21.652,-5.199c10.782,-4.074 14.809,-9.754 11.805,-19.782c-3.457,-11.507 0.445,-14.8 10.984,-17.812c16.36,-4.672 20.895,-12.625 18.098,-29.203c-1.324,-7.82 0.574,-12.465 6.344,-17.656c11.219,-10.102 11.719,-16.215 3.996,-29.106c-2.508,-4.187 -6.316,-7.672 -5.652,-11.754c1.195,-3.574 3.253,-3.297 4.933,-3.886c23.793,-8.266 25.332,-14.84 7.695,-32.7c-1.308,-1.324 -2.804,-2.453 -4.105,-3.785c-4.312,-4.414 -3.664,-8.234 0.508,-12.769c12.336,-13.434 12.633,-14.067 0.023,-25.723c-6.98,-6.461 -8.246,-10.805 -1.375,-18.266c9.672,-10.488 8.953,-16.629 -0.238,-27.07c-6.121,-6.941 -14.293,-9.641 -22.805,-11.664c-11.738,-2.793 -11.769,-2.672 -9.379,-14.516c3.227,-16.05 -1.066,-22.8 -16.601,-27.617c-9.723,-3.012 -18.278,0.652 -27.02,3.535c-5.812,1.93 -11.406,7.5 -17.386,5.059c-6.575,-2.684 -3.914,-10.918 -5.914,-16.516c-6.547,-18.351 -14.153,-21.613 -32.325,-13.023c-2.238,1.055 -4.328,2.543 -6.668,3.258c-4.515,1.355 -9.172,4.16 -10.968,-4.141c-1.606,-7.445 -8.18,-7.77 -14.903,-7.637c-15.629,0.309 -19.914,11.176 -21.738,23.825c-7.027,-0.266 -7.332,-5.411 -9.711,-8.731c-7.094,-9.891 -17.57,-11.004 -28.301,-9.172c-9.379,1.59 -13.898,7.563 -11.617,17.528c0.91,3.964 -1.5,5.613 -4.898,6.273c-5.469,1.062 -11.059,1.695 -16.426,3.141c-9.184,2.48 -19.227,5.753 -19.32,17.003c-0.079,8.911 -4.969,10 -11.11,11.75c-5.941,1.692 -11.855,3.618 -17.57,5.95c-10.918,4.453 -17.547,12.453 -15.274,24.578c1.387,7.371 -2.121,10.523 -7.304,13.019c-8.219,3.965 -10.785,11.61 -13.367,19.235c-2.02,5.968 -1.364,11.922 5.843,13.113c9.192,1.531 10.481,6.727 9.625,14.566c-0.976,8.961 3.723,14.102 12.496,15.254c8.496,1.114 15.899,1.688 20.821,11.586c3.375,6.789 13.277,4.844 20.574,2.817c3.234,-0.907 5.34,-3.657 3.609,-7.149c-4.051,-8.207 -1.613,-11.933 7.11,-14.808c12.097,-3.989 12.613,-6.243 10.632,-19.321c-0.519,-3.492 -3.027,-7.117 1.403,-11.078c10.453,6.078 16.609,-0.746 22.094,-8.953c2.398,-3.582 4.984,-7.109 5.585,-11.621c0.356,-2.621 1.77,-4.629 4.668,-4.852c3.84,-0.285 5.188,2.446 6.43,5.422c1.152,2.774 -0.355,6.227 2.328,8.555Zm106.535,28.508c-3.89,-3.559 -8.511,-2.766 -12.652,-3.438c-8.785,-1.414 -15.812,-6.093 -18.004,-14.234c-2.297,-8.574 -6.656,-10.379 -14.363,-9.344c-10.664,1.418 -20.809,-3.668 -30.723,-3.972c-8.777,-0.282 -15.304,11.64 -25.121,14.441c-2.379,0.684 -4.801,2.273 -7.098,2.094c-17.246,-1.325 -24.113,10.547 -30.062,23.425c-5.094,11.051 -13.586,19.844 -19.188,30.793c-5.597,10.926 -29.707,11.575 -40.468,2.508c-5.801,-4.906 -11.711,-8.777 -18.754,-11.258c-2.313,-0.824 -4.555,-2.007 -6.617,-3.336c-4.008,-2.574 -27.328,-37.382 -28.524,-42.14c-2.875,-11.457 1.098,-21.082 9.039,-28.785c6.438,-6.254 10.762,-12.254 11.586,-21.973c1.321,-15.508 13.11,-23.269 26.781,-27.719c9.473,-3.09 17.649,-5.418 20.684,-17.625c2.059,-8.269 11.906,-11.633 20.934,-13.277c8.589,-1.559 14.828,-4.844 18.55,-14.84c5.942,-15.953 21.211,-20.422 36.766,-12.547c8.328,4.215 14.117,6.141 23.082,-0.965c10.215,-8.113 23.691,-11.109 36.297,-2.199c6.312,4.453 12.691,3.485 19.488,1.406c21.156,-6.457 27.766,-3.574 38.477,16.305c6.851,12.719 6.824,12.598 21.508,9.391c4.812,-1.059 9.793,-1.805 14.703,-1.867c19.461,-0.239 31.453,7.867 34.347,26.707c1.664,10.867 6.614,16.378 15.414,20.765c9.188,4.578 15.829,11.977 20.106,21.238c1.785,3.875 4.851,9.551 3.367,12.176c-8.391,14.914 -1.539,27.614 4.133,40.727c0.453,1.051 0.625,2.762 0.078,3.648c-8.695,14.039 -1.957,25.465 4.844,37.887c5.512,10.09 2.59,18.266 -8.84,24.996c-8.984,5.281 -9.766,10.391 -6.18,19.121c4.028,9.82 3.297,20.27 -4.863,27.57c-6.801,6.083 -8.723,12.274 -7.539,20.887c1.805,13.129 -3.59,23.293 -15.742,28.649c-9.391,4.14 -15.114,9.117 -13.43,20.632c1.445,9.864 -4.109,16.465 -13.418,19.719c-4.684,1.637 -9.359,3.324 -14.133,4.649c-7.289,2.007 -11.058,5.218 -10.957,14.144c0.199,15.985 -5.148,22.91 -20.554,26.129c-12.848,2.676 -24.637,5.129 -34.317,15.481c-5.246,5.609 -14.332,6.906 -22.539,7.457c-13.008,0.871 -25.898,3.898 -38.75,4.472c-24.785,1.102 -48.555,7.117 -72.691,11.489c-0.602,0.113 -1.336,-0.09 -1.84,0.183c-9.5,4.957 -25.227,-11.019 -30.192,8.777c-3.015,12.036 -14.226,20.192 -14.597,33.629c-0.328,12.016 -9.707,17.977 -18.965,23.383c-4.281,2.496 -10.316,3.551 -12.879,7.153c-12.891,18.097 -28.891,11.398 -42.93,4.386c-9.414,-4.703 -18.621,-9.035 -28.648,-12.207c-14.152,-4.465 -17.805,-11.082 -16.352,-26.515c0.118,-1.223 0.93,-2.559 0.633,-3.618c-4.926,-17.382 -2.922,-31.921 15.457,-40.527c3.496,-1.629 2.32,-5.004 0.981,-8.059c-1.489,-3.394 -2.789,-6.945 -3.571,-10.55c-2.761,-12.864 0.11,-17.477 12.137,-23.547c8.457,-4.258 22.305,-1.028 25.375,-8.238c2.977,-6.977 5,-16.114 6.727,-24.461c1.5,-7.176 9.148,-10.079 15.402,-12.207c17.484,-5.961 35.121,-11.657 53.008,-16.235c13.16,-3.383 25.324,4.207 37.703,5.778c11.008,1.41 23.316,-6.407 35.695,-1.418c2.867,1.152 6.254,1.582 8.598,3.39c6.418,4.949 11.988,5.113 17.863,-0.859c2.09,-2.121 5.117,-3.488 7.93,-4.688c6.656,-2.832 13.992,1.723 20.113,-0.648c6.055,-2.356 4.129,-13.137 12.074,-14.942c10.934,-2.496 13.899,-8.753 13.336,-19.921c-0.468,-9.278 9.067,-13.25 16.703,-14.887c10.383,-2.223 12.965,-7.313 10.579,-16.828c-2.856,-11.41 8.761,-17.399 10.527,-26.153c1.828,-9.109 -4.735,-20.445 2.191,-28.668c7.407,-8.785 6.797,-15.582 0.989,-24.324c-5.844,-8.765 2.89,-17.758 1.296,-26.566Zm-339.671,423.394c-7.235,11.254 -13.332,11.618 -19.692,1.168c-0.64,-1.047 -0.875,-2.379 -1.621,-3.304c-2.73,-3.387 -6.348,-3.625 -9.992,-2.039c-3.258,1.41 -5.047,4.91 -3.438,7.613c8.114,13.601 -1.078,16.664 -11.16,20.254c-4.512,1.609 -8.535,4.945 -12.363,8.015c-9.649,7.754 -10.063,19.489 0.812,23.528c13.977,5.191 28.293,9.886 42.547,14.359c15.403,4.84 27.239,-7.363 40.063,-13.559c3.547,-1.703 4.297,-5.632 2.578,-9.699c-2.352,-5.586 -10.766,-8.101 -9.039,-15.355c2.098,-8.899 11.57,-4.711 17.098,-8.145c8.73,-5.41 10.285,-10.422 3.199,-17.519c-8.219,-8.235 -18.36,-12.434 -30.121,-12.035c-4.364,0.152 -9.039,0.363 -8.871,6.718Zm38.339,-12.625c5.43,3.793 9.641,7.145 12.856,11.996c7.992,12.102 8.008,21.684 -2.289,31.305c-6.192,5.789 -9.16,10.762 -8.731,20.227c0.672,14.652 -10.715,23.586 -23.308,27.972c-11.563,4.032 -24.157,5.743 -36.66,4.461c-4.231,-0.426 -9.719,-0.769 -12.235,-3.426c-7.402,-7.828 -17.269,-8.871 -26.472,-12.109c-14.903,-5.254 -23.106,-19.508 -19.739,-33.449c2.215,-9.145 8.86,-14.805 16.465,-19.234c8.219,-4.79 15.453,-8.672 13.25,-21.079c-1.523,-8.593 6.75,-14.07 14.512,-13.05c16.066,2.125 31.523,-3.098 47.336,-2.079c9.445,0.602 18.375,2.86 25.015,8.465Z" style="fill:#6b4e31;"/>
    <path id="q9" d="M1074.26,1919.77c-4.828,0.824 -8.91,1.429 -12.875,8.179c6.32,-2.351 10.648,-2.515 12.875,-8.179Zm-191.699,-41.676c-0.243,3.848 0.464,7.144 4.89,7.922c0.746,0.129 2.567,-1.313 2.512,-1.887c-0.438,-4.27 -3.449,-5.723 -7.402,-6.035Zm148.175,68.754c0.695,2.633 2.453,3.191 4.078,1.859c1.762,-1.445 3.597,-3.39 4.184,-5.461c0.488,-1.75 -1.973,-2.824 -3.629,-2.597c-3.625,0.48 -4.302,3.457 -4.633,6.199Zm23.008,-236.02c-1.867,-2.476 -3.707,-2.488 -5.195,-1.433c-1.926,1.375 -3.879,3.472 -1.379,5.648c0.871,0.762 3.441,0.145 4.918,-0.531c1.797,-0.82 2.293,-2.61 1.656,-3.684Zm-6.719,315.203c-1.094,0.055 -1.755,-0.082 -2.266,0.153c-3.073,1.304 -4.734,3.84 -5.226,6.984c-0.105,0.707 1.398,2.41 2.023,2.34c2.661,-0.281 4.071,-2.438 4.938,-4.684c0.547,-1.433 0.375,-3.136 0.531,-4.793Zm-11.23,-24.328c-4.922,-1.011 -9.759,-2.652 -11.848,3.735c-0.23,0.707 0.836,2.492 1.664,2.812c6.148,2.356 8.34,-1.629 10.184,-6.547Zm-141.52,-241.508c-1.453,-3.902 -1.882,-5.722 -2.761,-7.289c-1.465,-2.613 -2.68,-5.808 -6.391,-5.785c-0.926,0.008 -2.414,1.145 -2.684,2.043c-1.144,3.86 2.133,5.293 4.489,7.055c1.445,1.07 3.183,1.754 7.347,3.976Zm201.821,117.141c-12.395,-3.391 -12.395,-3.391 -19.41,4.707c7.089,-1.711 13.246,-3.219 19.41,-4.707Zm-9.153,-34.547c7.825,0.692 13.133,1.66 18.399,1.457c3.527,-0.137 4.558,-3.519 4.129,-6.758c-0.485,-3.558 -3.457,-2.902 -5.547,-2.386c-5.141,1.297 -10.824,1.328 -16.981,7.687Zm-23.769,-108.961c2.508,1.356 6.039,-0.008 9.363,-0.527c2.602,-0.418 6.719,-0.309 5.895,-4.567c-0.586,-2.984 -3.758,-4.753 -6.606,-5.5c-4.105,-1.07 -6.488,2.141 -8.918,4.762c-1.347,1.461 -1.625,3.071 0.266,5.832Zm-15.54,333.548c1.649,1.733 3.149,3.726 6.055,2.531c4.422,-1.821 6.957,-9.852 4.364,-13.817c-2.52,-3.844 -6.301,-4.043 -9.457,-1.887c-5.348,3.649 -1.344,8.642 -0.962,13.173Zm42.055,-300.54c-3.433,1.438 -7.968,2.211 -6.078,7.219c1.352,3.554 5.032,2.422 7.899,1.828c4.551,-0.938 10.054,0.746 13.308,-3.844c1.551,-2.183 0.16,-4.84 -1.738,-6.422c-4.848,-4.082 -9.008,1.028 -13.391,1.219Zm-113.476,-62.094c1.906,4.145 3.058,8.582 7.539,7.707c5.883,-1.16 4.223,-6.402 4.078,-10.461c-0.078,-2.418 -0.059,-5.035 -0.988,-7.187c-1.856,-4.317 -5.781,-3.582 -9.344,-2.707c-3.551,0.859 -4.902,3.203 -3.594,6.762c0.848,2.289 1.778,4.543 2.309,5.886Zm-64.535,48.555c9.191,-8.762 0.246,-15.352 -2.672,-22.32c-1.367,-3.25 -3.695,-7.055 -8.043,-3.27c-2.914,2.535 -8.039,5.258 -2.223,9.84c5.324,4.191 6.395,11.766 12.938,15.75Zm165.679,266.273c16.254,4.86 16.461,4.93 11.661,18.856c-2.657,7.734 -3.704,14.785 -1.567,23.297c4.492,17.875 -0.398,25.375 -18.992,29.028c-8.555,1.688 -10.188,4.75 -8.148,12.054c0.953,3.418 0.031,6.164 -3.555,7.336c-3.789,1.25 -5.703,-1.508 -7.324,-4.082c-14.47,-23.027 -33.211,-43.328 -43.653,-68.895c-7.418,-18.152 -11.019,-37.433 -8.168,-56.445c5.516,-36.86 13.735,-73.074 34.465,-105.352c11.355,-17.675 22.453,-36.039 26.281,-57.164c1.735,-9.601 7.641,-20.871 -4.476,-28.726c4.699,-15.16 -3.028,-23.477 -14.637,-32.075c-5.277,-3.906 -3.914,-13.687 -11.883,-20.117c-14.738,-11.883 -28.09,-7.808 -42.218,-3.047c-9.879,3.325 -19.395,8.043 -28.516,13.141c-5.953,3.324 -14.449,5.715 -12.359,15.859c0.214,1.032 -0.563,3.215 -1.176,3.332c-11.606,2.227 -11.153,12.266 -15.215,20.422c-8.356,16.762 -13.699,34.477 -10.914,51.621c1.488,9.176 2.801,18.418 3.648,27.672c1.742,18.907 -2.593,29.492 -13.14,33.348c-17.985,6.578 -38.739,0.879 -48.614,-13.027c-36.285,-51.059 -28.89,-111.633 9.082,-154.141c31.352,-35.098 69.664,-55.981 117.172,-55.914c44.367,0.058 84.86,13.441 116.707,45.406c22.969,23.059 35.317,51.766 37.715,84.887c1.762,24.504 -4.664,46.937 -13.918,68.773c-8.078,19.11 -14.078,39.328 -27.301,56.012c-1.339,1.688 -2.445,5.949 -1.671,6.586c13.253,10.891 1.238,13.273 -5.582,17.602c-1.684,1.066 -5.606,2.07 -2.934,5.125c8.285,9.488 -2.152,12.648 -5.797,18.054c-3.766,5.606 -7.176,10.832 2.5,14.164c4.699,1.625 4.527,5.399 2.531,9.071c-2.945,5.437 -6.164,10.722 -10.004,17.339Zm59.317,224.106c-1.992,2.867 -1.207,5.644 -0.133,8.621c0.578,1.594 0.625,3.633 0.203,5.281c-1.344,5.239 1.914,7.778 5.453,5.586c6.176,-3.832 -2.035,-6.465 -2.34,-10.191c-0.246,-3.114 1.868,-7.668 -3.183,-9.297Zm-41.946,-4.754c-6.578,-9.645 -7.285,-22.773 -7.98,-35.691c-1.043,-19.731 11.797,-30.829 31.621,-28.09c11.727,1.609 49.988,28.301 54.145,39.351c6.093,16.172 6.711,32.657 -3.258,47.942c-10.086,15.453 -33.039,19.023 -49.426,8.203c-11.289,-7.453 -17.855,-18.578 -25.102,-31.715Z" style="fill:#6b4e31;"/>
    <path id="q8" d="M1344.79,757.984c-6.84,-2.742 -5.309,-8.566 -5.801,-14.136c-0.929,-10.5 2.524,-21.465 -1.547,-32.524c-18.781,12.789 -31.972,27.551 -39.445,47.598c-11.758,31.508 -21.145,63.601 -24.285,97.086c-1.5,16.031 0.691,32.246 7.328,47.347c8.414,19.137 30.07,26.336 44.434,13.747c8.812,-7.731 15.589,-17.868 15.183,-30.754c-0.285,-9.297 -0.062,-18.707 -1.519,-27.84c-1.868,-11.719 0.687,-22.207 6.093,-32.25c8.606,-15.981 20.332,-29.84 33.676,-41.723c28.528,-25.355 62.66,-41.945 96.977,-57.758c31.379,-14.461 59.484,-34.097 83.308,-58.312c38.121,-38.742 46.082,-88.844 45.653,-140.914c-0.047,-5.047 -1.453,-9.938 -4.375,-13.926c-1.246,-1.703 -10.782,5.449 -5.239,-4.645c2.368,-4.316 6.02,-8.054 5.086,-13.539c-0.312,-1.832 -0.828,-3.628 -1.285,-5.429c-9.269,-36.657 -26.785,-68.879 -51.664,-97.297c-30.141,-34.43 -70.027,-47.633 -113.648,-52.422c-8.481,-0.93 -17.868,-3.332 -25.68,0.566c-5.27,2.629 -8.398,5.204 -14.477,1.579c-5.73,-3.426 -9.05,0.246 -9.359,6.722c-0.285,5.969 3.867,12.445 -1.266,19.121c-7.5,-7.875 -2.242,-17.968 -8.199,-26.437c-12.426,4.234 -25.777,7.441 -37.887,13.23c-18.308,8.742 -37.671,16.031 -52.316,31.199c-9.742,10.086 -18.953,20.02 -10.254,37.239c-7.926,-3.367 -13.004,-5.176 -15.547,3.597c-2.019,6.973 -2.375,12.969 0.5,19.704c4.754,11.144 8.785,22.593 14.27,36.91c-14.813,-7.008 -11.328,-22.723 -21.856,-30.133c-8.855,36.305 -2.086,69.351 14.836,100.699c4.707,8.731 12.117,15.34 21.18,20.359c11.742,6.508 22.887,9.528 34.719,0.872c10.937,-8.016 15.41,-19.137 9.398,-34.739c-4.953,-12.828 -4.527,-24.82 -2.207,-37.429c4.676,-25.293 12.137,-49.747 29.227,-69.528c19.566,-22.648 43.832,-35.203 75.195,-33.113c22.379,1.492 41.82,9.066 61.27,19.519c35.418,19.028 57.277,47.793 61.253,87.231c5.832,57.695 -19.378,101.723 -66.261,134.215c-16.461,11.402 -34.785,19.012 -53.637,25.332c-10.32,3.449 -19,8.097 -21.125,21.828c-1.398,-11.613 -5.539,-14.289 -15.223,-9.516c-12.757,6.297 -26.214,11.196 -39.457,16.504c-9.793,3.926 -14.39,11.043 -14.683,21.516c-0.391,13.625 -1.192,27.234 -1.821,40.851l0.477,-0.207Zm280.148,-281.386c-8.347,5.34 -10.308,12.476 -8.175,22.191c2.488,11.297 3.316,22.957 5.273,37.535c8.047,-9.445 14.582,-17.047 21.031,-24.726c2.387,-2.836 4.586,-5.844 6.875,-8.77c2.371,-3.043 5.7,-6.664 9.086,-3.683c4.074,3.57 -1.285,6.125 -3.129,8.855c-1.019,1.512 -2.636,2.629 -3.828,4.039c-32.226,38.406 -32.289,38.399 -38.34,89.133c-1.121,9.391 -3.296,18.25 -8.437,26.32c-3.004,4.711 -5.098,9.863 -5.879,16.496c12.414,-0.308 21.293,-15.031 35.582,-7.324c-7.844,4.02 -15.121,7.34 -21.992,11.34c-17.168,10.004 -32.512,21.894 -46.375,36.617c-24.031,25.527 -54.555,42.524 -85.848,57.871c-21.117,10.356 -43.113,18.871 -63.301,31.238c-10.644,6.524 -20.675,13.68 -30.074,21.782c-20.426,17.605 -34.769,38.121 -32.164,66.961c0.731,8.004 0.035,16.121 0.156,24.187c0.317,23.035 -17.32,45.305 -39.363,49.582c-21.101,4.086 -40.574,-7.879 -50.305,-31.808c-7.121,-17.504 -9.625,-36.125 -7.265,-54.723c4.547,-35.852 13.691,-70.746 27.426,-104.145c7.953,-19.339 22.097,-34.589 40.277,-45.015c11.019,-6.336 15.555,-14.836 16.086,-27.043c0.683,-15.469 2.25,-30.903 3.586,-46.344c0.222,-2.445 1.308,-4.844 4.429,-4.879c3.696,-0.035 3.762,3.266 3.563,5.289c-1.223,12.336 -2.867,24.625 -4.301,36.938c-0.637,5.504 -2.168,11.031 0.297,17.601c7.922,-0.39 14.27,-5.679 21.508,-8.222c7.605,-2.668 14.887,-7.68 22.601,-8.371c22.11,-2.004 26.879,-17.086 30.903,-34.997c4.054,-18.085 10.445,-35.66 15.871,-53.429c0.91,-2.989 2.383,-5.602 8.101,-6.192c-5.363,27.942 -17.285,53.168 -22.214,82.551c45.449,-12.918 81.168,-34.621 102.195,-76.207c16.91,-33.461 20.262,-67.789 3.027,-101.812c-16.636,-32.836 -43.215,-53.114 -80.605,-58.524c-25.754,-3.722 -49.946,-1.39 -70.012,16.27c-23.773,20.906 -37.644,47.265 -37.73,79.609c-0.039,12.981 2.507,25.766 4.523,38.609c4.176,26.61 -21.34,49.336 -47.555,42.497c-24.429,-6.379 -41.402,-21.977 -51.711,-44.625c-15.562,-34.172 -17.125,-69.657 -7.355,-105.508c2.812,-10.336 1.848,-18.789 -2.652,-28.289c-7.149,-15.114 -12.813,-30.93 -19.051,-46.465c-1.348,-3.332 -3.742,-6.699 0.867,-11.563c13.348,17.59 16.395,39.91 28.113,59.258c6.797,-6.277 10.469,-13.48 8.422,-20.379c-3.871,-13.066 -2.515,-27.277 -9.234,-39.597c-0.887,-1.625 -1.817,-3.352 -2.16,-5.125c-1,-5.075 -6.036,-12.747 0.472,-14.625c7.817,-2.243 5.731,7.191 7.02,11.687c3.691,12.856 6.687,25.906 10.676,41.746c21.035,-25.562 46.519,-39.84 73.687,-51.91c9.149,-4.066 18.477,-7.285 27.977,-9.859c7.05,-1.907 8.824,-5.2 7.625,-11.934c-1.407,-7.906 -2.18,-15.934 -2.942,-23.945c-0.625,-6.543 -4.238,-13.176 0.106,-19.867c5.941,-0.372 4.832,4.375 5.375,7.445c1.82,10.383 3.133,20.851 5.07,31.211c0.988,5.316 -2.367,14.914 7.727,13.332c9.312,-1.453 3.796,-10.11 4.023,-15.481c0.301,-6.761 -0.937,-13.589 -1.383,-20.39c-0.207,-3.145 -0.16,-6.617 4.063,-6.926c4.285,-0.301 4.539,3.109 4.886,6.289c0.629,5.543 1.594,11.055 2.032,16.609c1.484,19.274 1.422,19.754 19.699,19.657c25.91,-0.157 49.75,8.316 73.773,16.289c12.274,4.074 24.496,7.59 35.469,15.445c24.801,17.746 43.824,40.094 57.656,67c9.071,17.637 17.793,35.465 23.407,54.828c4.628,-0.558 8.73,-1.07 12.836,-1.574l0.003,-0.031Zm-277.675,596.203c-3.645,-3.395 -4.047,-6.399 -4.297,-9.539c-1.477,-18.539 -2.692,-19.426 -20.934,-16.309c-4.25,0.723 -8.387,0.61 -10.324,5.949c-3.949,10.95 1.328,33.453 10.238,41.489c8.274,7.445 14.617,6.906 21.977,-1.957c6.914,-8.34 8.578,-18.371 10.226,-28.645c-1.675,-0.156 -2.699,-0.418 -2.789,-0.234c-1.304,2.742 -2.484,5.535 -4.097,9.246Zm22.336,-24.699c7.074,-17.313 7.14,-37.227 20.804,-51.715c-8.441,41.332 -20.531,81.492 -36.761,121.539c-6.145,-0.93 -7.149,-12.266 -17.239,-6.492c-8.707,4.98 -18.293,-3.871 -26.847,-8.016c-5.985,4.703 1.722,10.887 -2.621,15.656c-6.344,0.801 -6.375,-4.25 -6.993,-8.293c-4.265,-28.101 -9.023,-56.097 -17.238,-83.363c-2.309,-7.668 -5.383,-15.102 -7.992,-22.68c-0.777,-2.258 -1.824,-5.191 0.66,-6.605c2.965,-1.699 6.531,-0.613 8.074,2.277c4.071,7.633 7.149,15.688 8.903,24.254c1.332,6.492 0.687,13.481 4.66,19.746c3.347,-4.73 6.121,-9.601 9.797,-13.656c8.488,-9.316 15.14,-9.473 26.015,-1.344c6.731,5.024 11.344,3.801 13.414,-4.219c2.164,-8.363 3.293,-17 5.371,-25.398c0.754,-3.047 3.395,-5.449 6.993,-4.086c2.652,1.012 2.836,3.57 2.144,6.207c-1.422,5.371 -2.348,10.902 -4.109,16.156c-4.571,13.743 -0.918,23.739 12.965,30.032Zm-121.11,-190.235c-11.961,-32.34 -9.465,-67.316 -15.926,-100.98c-0.406,-2.129 2.012,-4.336 6.082,-4.942c6.43,34.797 7.196,70.168 9.844,105.922Zm376.446,-381.234c1.839,-21.356 17.402,-34.031 30.332,-48.383c-9.133,16.738 -22.653,30.691 -30.329,48.344c0,0.008 -0.003,0.039 -0.003,0.039Zm-18.497,-182.367c-4.269,14.238 -11.699,26.984 -15.57,41.121c0.961,-17.567 6.504,-33 15.57,-41.121Zm-24.382,56.621c0.492,4.992 -1.094,9.355 -3.645,14.371c-1.094,-6.117 2.106,-9.992 3.645,-14.371Zm-297.207,167.804c-6.903,-3.007 -4.879,-7.961 -6.282,-14.23c5.907,3.992 7.043,7.934 6.282,14.23Zm59.468,239.5c0.719,4.215 0.535,8.309 -1.863,12.575c-5.738,-5.661 -0.266,-8.95 2.277,-12.758c0.063,-0.024 -0.414,0.183 -0.414,0.183Z" style="fill:#6b4e31;"/>
    <path id="q7" d="M2449.16,801.902c0.5,-0.273 1.211,-0.429 1.453,-0.847c1.469,-2.559 2.969,-5.325 1.895,-8.266c-0.817,-2.246 -2.973,-1.746 -3.977,-0.148c-1.64,2.625 -1.199,5.644 -0.39,8.515c0.089,0.324 0.671,0.504 1.019,0.746Zm-80.391,21.278c-1.316,-0.809 -2.175,-0.332 -2.464,1.324c-0.211,1.187 -0.235,2.48 -0.016,3.664c0.395,2.098 1.316,2.168 1.863,0.125c0.453,-1.691 0.442,-3.508 0.617,-5.113Zm172.461,-284.754c3.145,-4.43 4.454,-7.91 1.332,-11.953c-2.914,3.324 -3.652,6.617 -1.332,11.953Zm-307.093,17.219c1.41,-0.004 2.297,-0.766 2.011,-2.141c-0.238,-1.121 -0.929,-2.195 -1.605,-3.16c-0.945,-1.356 -1.781,-1.028 -2.008,0.84c-0.211,1.703 -0.582,3.562 1.602,4.461Zm-8.129,19.441c-0.594,1.035 -1.657,2.035 -1.649,3.027c0.035,2.969 -1.898,9.157 3.59,6.789c4.735,-2.043 1.516,-6.945 -1.941,-9.816Zm-3.606,-11.856c0.254,-7.863 1.942,-12.414 -4.304,-15.148c-0.832,5.137 0.039,8.871 4.304,15.148Zm297.817,-80.109c-0.246,-2.723 -0.313,-6.039 -4.442,-6.445c-0.726,-0.071 -2.172,1.34 -2.347,2.25c-0.657,3.32 0.476,6.39 3.562,7.73c2.024,0.879 2.75,-1.394 3.227,-3.535Zm-32.875,67.539c-0.989,0.606 -2.25,1.004 -2.907,1.863c-2.132,2.813 -1.871,5.758 0.5,8.286c1.067,1.125 2.719,0.859 2.895,-0.309c0.43,-2.953 0.473,-5.973 0.574,-8.965c0.016,-0.285 -0.687,-0.582 -1.062,-0.875Zm-178.715,390.77c-1.758,8.3 -5.192,13.379 -0.496,19.859c3.371,-5.859 5.316,-10.805 0.496,-19.859Zm236.949,-275.535c-1.875,-7.313 3.922,-10.645 -2.844,-15.774c0.719,4.684 -2.519,8.203 2.844,15.774Zm-11.648,-157.016c0.839,-1.574 1.183,-2.082 1.394,-2.629c1.164,-3.07 0.891,-5.996 -1.457,-8.359c-1.476,-1.493 -3.926,-1.039 -3.941,0.73c-0.028,2.875 1.211,5.77 2.035,8.617c0.137,0.469 0.887,0.77 1.969,1.641Zm-312.563,107.164c3.43,-5.367 1.695,-9.23 -2.433,-13.047c-2.575,5.078 -3.028,9.359 2.433,13.047Zm257.106,-154.965c-2.403,9.137 -3.692,14.317 -0.95,21.629c0.188,-7.309 3.246,-12.305 0.95,-21.629Zm-46.602,387.11c8.266,-3.747 8.699,-9.313 6.852,-18.032c-3.485,6.446 -8.2,10.18 -6.852,18.032Zm-157.637,114.632c2.899,-9.093 -0.351,-14.836 -2.035,-24.976c-2.414,10.629 -3.281,16.957 2.035,24.976Zm-19.359,-378.636c-2.875,6.25 -2.465,11.961 2.269,18.246c2.93,-7.399 -0.332,-12.774 -2.269,-18.246Zm-13.852,-9.653c-2.828,3.129 -2.187,5.621 -1.929,7.965c0.195,1.777 0.566,3.664 1.414,5.211c0.832,1.527 0.301,5.004 4.281,3.746c0.863,-6.129 -1.328,-11.16 -3.766,-16.922Zm-7.316,30.442c-3.293,6.289 -3,11.707 2.695,17.543c2.992,-7.375 -0.476,-12.493 -2.695,-17.543Zm-23.891,49.734c3.375,-4.191 4.785,-7.844 4.934,-11.953c0.055,-1.77 -0.547,-3.555 -4.117,-3.703c1.73,4.847 -5.645,7.597 -0.817,15.656Zm42.434,-12.699c-1.652,5.734 -1.469,10.601 3.414,15.305c0.473,-5.887 2.027,-11.125 -3.414,-15.305Zm-25.047,10.383c1.977,-12.856 1.977,-12.856 -2.562,-18.836c-1.618,5.527 -1.301,10.683 2.562,18.836Zm334.438,-48.348l1.933,-17.559c-8.129,6.024 -4.074,11.871 -1.933,17.559Zm-41.649,-76.277c-1.906,7.097 -3.695,12.066 0.176,19.269c4.644,-7.265 4.269,-12.222 -0.176,-19.269Zm-67.051,-37.633c6.239,-8.258 8.426,-13.57 6.828,-20.875c-7.425,4.574 -6.031,10.933 -6.828,20.875Zm93.02,101.137c-0.567,-9.739 1.918,-16.274 -2.512,-25.176c-4.32,9.16 -5.207,15.652 2.512,25.176Zm-295.672,-25.95c3.961,-14.39 3.961,-14.39 -3.223,-26.246c-3.308,9.617 -0.297,17.254 3.223,26.246Zm46.43,-19.816c-6.356,9.07 -6.391,16.703 -1.649,26.937c2.328,-9.519 5.172,-16.679 1.649,-26.937Zm-17.836,28.809c3.543,-7.473 3.879,-13.391 2.445,-22.028c-7.43,7.66 -7.43,13.617 -2.445,22.028Zm186.718,227.765c-8.242,21.695 -8.242,21.695 -4.332,27.422c3.024,-7.379 4.29,-14.961 4.332,-27.422Zm61.305,-234.664c-6.926,7.477 -6.992,13.613 -6.203,20.813c7.063,-4.539 8.176,-10.395 6.203,-20.813Zm-112.722,-64.492c10.289,-7.348 5.972,-14.856 2.605,-23.965c-4.539,8.316 -4.723,15.375 -2.605,23.965Zm86.285,34.437c7.195,-6.863 4.019,-14.23 3.269,-23.468c-8.98,8.242 -4.004,16.218 -3.269,23.468Zm-212.403,-56.718c3.25,-8.426 5.887,-14.133 1.184,-20.274c-0.32,-0.422 -2.441,-0.183 -3.047,0.422c-4.773,4.813 0.652,10.184 -0.641,15.262c-0.097,0.41 0.516,0.996 2.504,4.59Zm3.254,52.703c3.219,-10.711 4.887,-18.336 -0.586,-27.074c-5.129,9.191 -1.285,16.585 0.586,27.074Zm50.082,-15.418c-4.105,5.832 -6.492,10.125 -7.136,15.148c-0.297,2.321 -1.028,5.289 2.046,6.11c3.414,0.921 6.497,-1.293 7.485,-4.094c1.902,-5.422 -0.25,-10.738 -2.395,-17.164Zm32.235,-15.887c7.211,-8.168 7.211,-8.168 3.093,-21.68c-4.609,7.239 -4.636,13.954 -3.093,21.68Zm63.129,33.547c3.562,-10.352 9.82,-16.793 5.226,-29.035c-4.516,9.859 -9.207,16.351 -5.226,29.035Zm45.031,-29.332c-5.375,8.508 -2.766,15.555 -3.395,24.512c7.75,-12.309 7.75,-12.309 3.395,-24.512Zm-52.219,-57.52c2.395,-6.355 8.738,-10.863 7.828,-18.238c-0.094,-0.793 -4.32,-2.055 -4.566,-1.691c-3.961,5.824 -6.035,12.234 -3.262,19.929Zm76.5,107.528c-3.254,10.269 -5.586,17.761 -0.191,27.808c5.687,-9.922 4.781,-17.449 0.191,-27.808Zm-181.043,339.386c-1.086,9.235 -9.586,16.122 -3.566,27.094c5.804,-9.008 10.515,-16.523 3.566,-27.094Zm-20.687,32.774c4.449,-10.121 1.48,-19.703 -1.36,-32.207c-5.015,13.086 -1.429,22.617 1.36,32.207Zm20.996,-458.899c2.601,-13.156 4.507,-22.386 6.23,-31.66c0.485,-2.621 -0.351,-4.754 -3.656,-4.547c-2.336,0.153 -3.078,2.125 -3.125,3.817c-0.25,9.39 -3.52,18.805 0.551,32.39Zm95.75,365.094c6.812,-9.074 5.679,-19.601 6.093,-29.91c-2.968,9.785 -7.898,19.082 -6.093,29.91Zm11.961,-336.262c7.855,-10.953 9.875,-19.359 4.55,-28.441c-2.796,8.149 -5.586,16.234 -4.55,28.441Zm-158,6.965c-5.079,11.282 -5.946,20.289 -2.387,32.618c6.625,-11.637 7.527,-20.688 2.387,-32.618Zm100.328,340.86c-7.051,8.761 -10.731,18.211 -5.574,33.07c4.296,-13.07 8.41,-22.262 5.574,-33.07Zm-1.528,-419.664c-7.394,9.863 -8.105,20.304 -3.312,33.789c4.476,-12.637 5.207,-23.047 3.312,-33.789Zm124.469,352.871c-2.32,9.168 -6.582,16.703 -5.258,27.258c13.383,-12.446 13.383,-12.446 5.258,-27.258Zm-187.953,-222.641c15.133,-9.965 15.406,-11.164 6.68,-28.473c-2.016,9.446 -9.41,16.77 -6.68,28.473Zm112.02,-131.605c-14.821,-1.356 -15.93,1.054 -10.821,24.113c3.957,-3.297 3.645,-7.844 4.215,-11.672c0.746,-5.027 4.762,-8.074 6.606,-12.441Zm-83.29,442.535c5.059,-12.442 13.055,-24.192 9.786,-38.594c-5.782,12.211 -10.688,24.637 -9.786,38.594Zm0.649,35.73c13.051,-12.48 15,-25.015 12.348,-38.984c-5.606,11.391 -11.809,22.586 -12.348,38.984Zm49.309,-440.277c7.148,-13.524 9.445,-25.25 6.085,-37.828c-4.914,11.324 -12.156,22.195 -6.085,37.828Zm68.238,70.332c5.496,-10.906 14.64,-21.156 6.699,-35.266c-7.727,11.215 -10.699,22.516 -6.699,35.266Zm-63.723,-28.445c7.77,-10.907 10.016,-22.219 4.652,-36.696c-6.257,13.356 -8.57,24.684 -4.652,36.696Zm-103.64,472.238c8.335,-16.324 4.515,-29.109 1.355,-44.844c-9.215,15.68 -6.406,28.461 -1.355,44.844Zm44.535,-502.441c-8.168,14.417 -9.285,27.761 -3.532,42.593c10.176,-13.699 9.801,-27.144 3.532,-42.593Zm-28.868,56.031c12.813,-20.489 13.985,-29.012 6.329,-46.813c-3.934,15.715 -9.594,29.246 -6.329,46.813Zm-19.824,352.902c-9.242,16.25 -10.261,29.609 -1.383,46.375c6.422,-16.394 5.575,-29.922 1.383,-46.375Zm234.426,-118.945c9.359,-24.477 20.098,-48.641 24.066,-74.879c-9.003,24.621 -22.175,47.883 -24.066,74.879Zm-167.348,-251.531c10.696,-13.684 11.653,-24.895 3.848,-42.821c-8.82,13.692 -8.16,27.817 -3.848,42.821Zm42.914,349.214c6.036,-13.671 14.293,-26.902 5.641,-42.613c-10.93,17.957 -12.113,25.309 -5.641,42.613Zm-193,-285.742c-2.449,5.34 -3.953,7.028 -3.789,8.524c1.614,14.582 -1.843,29.464 2.946,45.105c11.097,-17.199 6.328,-33.644 0.843,-53.629Zm114.293,315.996c2.875,-16.613 11.454,-32.699 4.297,-52.047c-10.617,17.723 -10.258,34.629 -4.297,52.047Zm31.954,-421.726c2.671,-12.508 5.5,-24.985 7.91,-37.535c0.64,-3.336 1.445,-7.961 -3.575,-8.84c-5.222,-0.918 -7.503,2.488 -8.437,7.355c-2.555,13.285 -4.063,26.485 4.102,39.02Zm180.691,159.984c-1.785,7.774 2.152,13.977 5.574,20.309c0.547,-7.414 5.692,-16.227 -6.019,-19.961c0.504,-7.211 8.808,-13.879 1.929,-22.449c-9.511,7.472 -8.254,14.652 -1.484,22.101Zm31.125,30.418c5.371,-4.113 10.051,-8.5 6.625,-16.316c-4.074,4.937 0.523,12.812 -6.293,16.562l-1.781,16.215c4.129,-7.141 4.199,-11.75 1.449,-16.461Zm21.594,-133.586c-7.637,10.406 -5.067,19.442 -2.852,29.367c5.508,24.739 10.793,49.594 7.727,75.453c-1.891,15.915 -0.832,32.18 -2.512,48.133c-2.887,27.379 -16.055,51.832 -23.656,77.895c-1.731,5.937 -4.11,11.683 -6.125,17.535c-0.965,2.801 -0.848,6.621 -5.16,6.473c-4.211,-0.149 -4.039,-3.852 -4.872,-6.731c-0.312,-1.074 -1.171,-1.984 -1.984,-3.281c-21.84,26.176 -43.652,52.043 -71.644,72.215c-8.7,6.273 -18.243,10.531 -27.348,14.859c-19.516,9.277 -36.848,22.332 -56.688,30.832c-5.695,2.438 -11.336,5.293 -13.902,11.641c-1.785,4.406 -4.562,7.289 -9.809,6.734c-5.925,-0.621 -10.699,3.402 -11.613,7.625c-3.371,15.418 -18.148,24.309 -21.804,38.852c-5.657,22.504 -21.836,35.75 -38.637,49.16c-7.367,5.879 -12.188,0.941 -18.379,-1.578c-6.039,-2.446 -11.352,-1.813 -11.277,-12.235c0.082,-12.621 -4.997,-25.199 -5.61,-38.39c-0.687,-14.5 2.016,-28.418 3.727,-42.551c0.074,-0.598 0.195,-1.336 0.566,-1.75c8.102,-8.762 -4.984,-22.68 9.973,-31.82c10.012,-6.121 13.277,-21.883 23.539,-30.469c9.5,-7.942 19.336,-15.574 28.187,-24.207c15.11,-14.735 36.973,-16.934 53.118,-29.621c3.089,-2.43 7.187,-1.055 10.886,-0.555c3.742,0.504 8.227,1.094 10.379,-2.281c4.813,-7.59 8.18,-14.465 19.336,-6.75c3.195,2.211 10.594,-4.258 12.688,-10.688c2.781,-8.543 7.613,-10.465 11.82,-1.765c3.328,6.855 7.816,6.59 11.601,3.175c17.852,-16.082 40.7,-25.902 53.211,-48.859c22.86,-41.926 16.59,-106.574 -21.011,-143.074c-11.723,-11.371 -26.614,-21.488 -42.508,-24.859c-16.84,-3.575 -32.899,-11.833 -50.227,-11.458c-27.949,0.606 -53.797,8.571 -73.8,29.372c-18.11,18.843 -30.051,41.132 -31.364,67.703c-1.086,22.027 -10.906,38.851 -27.097,52.961c-8.489,7.394 -17.688,9.187 -27.489,4.359c-12.09,-5.957 -22.976,-12.078 -29.832,-25.992c-25.105,-50.981 -22.261,-99.207 9.219,-146.207c13.113,-19.582 25.863,-39.953 42.754,-56.031c29.461,-28.043 60.082,-55.063 102.883,-62.54c36.543,-6.39 70.465,-2.226 101.582,18.45c10.914,7.242 22.398,13.086 34.199,18.636c17.84,8.391 35.059,17.993 46.656,34.907c13.215,2.062 14.266,11.968 16.309,22.675c1.297,6.879 7.762,12.43 9.746,19.805c2.269,8.379 9.687,1.824 17.094,4.875Zm-318.719,624c3.297,-1.07 2.98,-3.535 3.016,-5.695c0.023,-1.567 0.16,-4.016 -2.157,-3.637c-2.488,0.406 -3.617,2.996 -3.433,5.305c0.117,1.418 1.691,2.726 2.574,4.027Zm14.723,-19.406c3.281,-9.844 1.652,-15.359 -2.879,-22.215c-2.848,7.77 0.066,13.027 2.879,22.215Zm-22.774,0.488c8.035,-8.445 6.149,-16.023 6.305,-23.047c0.027,-1.48 -1.32,-3.718 -2.641,-4.355c-2.797,-1.356 -4.129,1.375 -5.433,3.203c-5.657,7.879 -0.813,14.922 1.769,24.199Zm-24.457,-39.113c9.899,2.25 16.242,-1.301 22.82,-8.301c12.899,-13.75 20.442,-13.687 36.067,-3.121c2.691,1.813 5.519,2.523 8.625,2.66c8.582,0.399 12.906,5.711 15.066,13.309c4.563,16.125 9.039,32.289 14.008,50.058c-11.598,-0.734 -15.801,3.805 -17.641,15.223c-1.332,8.27 -13.925,13.426 -11.785,26.207c-10.254,-7.164 -23.554,-6.609 -26.914,-19.547c-6.605,-1.922 -6.043,7.762 -12.148,6.34c-6.059,-1.41 -6.824,-6.715 -8.879,-10.941c-1.668,-3.434 -3.863,-6.215 -6.477,-8.895c-11.125,-11.391 -17.144,-24.441 -10.797,-40.305c3.063,-7.679 -1.007,-14.371 -1.945,-22.687Z" style="fill:#6b4e31;"/>
    <path id="q6" d="M1275.1,2606.38c0.761,1.156 1.515,2.301 2.281,3.449c9.902,-4.383 19.836,-8.691 29.66,-13.23c1.504,-0.703 2.945,-2.368 1.988,-4.532c-0.734,-1.632 -1.476,-3.546 -3.832,-2.89c-11.597,3.234 -22.562,7.519 -30.097,17.203Zm157.382,203.473c-6.156,5.152 -11.839,8.121 -20.406,7.433c6.469,11.024 11.391,19.801 24.152,18.664c1.446,-8.453 0.528,-16.144 -3.746,-26.097Zm-143.175,-179.485c2.437,8.192 7.425,11.746 12.863,14.641c6.371,3.41 11.961,1.387 16.348,-3.789c3.75,-4.43 3.636,-17.676 -0.27,-20.774c-5.086,-4.031 -9.027,0.743 -13.234,2.606c-5.004,2.199 -9.914,4.605 -15.707,7.316Zm131.941,218.832c0.859,8.77 5.738,15.098 11.66,20.582c5.66,5.235 11.531,1.805 17.113,-0.695c6.067,-2.734 4.551,-7.574 3.622,-12.609c-1.36,-7.364 -5.766,-8.071 -12.129,-7.438c-6.657,0.668 -13.434,0.156 -20.266,0.16Zm116.602,-179.367c2.562,-7.027 4.714,-12.187 6.324,-17.512c3.984,-13.086 2.937,-14.515 -10.957,-16.222c-10.168,-1.25 -15.856,2.625 -18.832,12.976c-2.266,7.883 3.679,11.117 8.785,14.258c4.133,2.543 8.922,4.016 14.68,6.5Zm-53.997,61.766c-5.679,-4.41 -10.089,-7.711 -14.378,-11.184c-4.309,-3.484 -8.602,-7.004 -12.7,-10.742c-4.472,-4.074 -8.867,-3.563 -13.32,-0.266c-5.391,3.985 -1.187,8.067 0.723,11.199c2.828,4.661 6.621,8.872 10.566,12.672c13.145,12.68 13.781,12.567 29.109,-1.679Zm44.391,-110.664c21.738,8.207 21.758,8.175 23.996,-13.368c0.375,-3.636 1.059,-7.246 1.449,-10.89c0.938,-8.613 -5.597,-7.543 -10.859,-8.602c-5.887,-1.176 -9.109,-0.105 -9.871,6.707c-0.949,8.473 -2.973,16.824 -4.715,26.153Zm-12.363,-163.477c-6.938,4.481 -6.59,13.27 -11.621,18.438c-7.43,7.625 1.949,10.523 4.472,14.789c2.094,3.554 5.055,9.761 11.383,5.816c5.555,-3.457 12.528,-6.016 13.293,-13.984c0.16,-1.637 -1.086,-3.481 -1.887,-5.125c-3.738,-7.645 -7.617,-15.188 -15.64,-19.934Zm-67.715,-12.125c3.699,4.488 10.113,5.379 15.508,7.887c5.75,2.668 7.273,-1.91 9.457,-5.781c2.117,-3.75 4.91,-7.125 7.422,-10.661c3.496,-4.91 1.168,-8.304 -3.301,-10.304c-7.59,-3.391 -12.289,-12.645 -22.297,-10.961c-0.414,0.066 -0.75,0.957 -1.016,1.508c-4.089,8.578 -5.207,17.765 -5.773,28.312Zm-145.359,109.008c-11.496,1.312 -19.899,6.812 -29.067,10.039c-8.179,2.891 -9.582,9.246 -6.23,19.426c3.422,10.453 9.523,3.574 14.656,2.515c2.379,-0.488 4.648,-1.566 6.926,-2.465c18.332,-7.187 18.636,-7.808 13.715,-29.515Zm-38.286,-13.227c9.172,0.645 16.653,-2.5 24.321,-4.504c17.183,-4.48 17.168,-4.539 18.168,-23.316c-7.332,-2.906 -14.692,-0.406 -21.871,0.457c-20.621,2.473 -21.18,3.5 -20.618,27.363Zm88.18,-108.082c0.84,2.317 1.352,4.84 2.598,6.918c2.176,3.633 2.82,9.09 7.234,10.301c6.36,1.746 11.844,-2.363 17.117,-5.273c4.266,-2.348 2.192,-6.661 1.149,-9.954c-2.414,-7.668 -5.321,-15.168 -8.043,-22.73c-1.469,-4.07 -4.172,-5.309 -8.586,-4.953c-13.617,1.113 -18.067,10.59 -11.469,25.691Zm188.641,68.215c-17.324,9.863 -17.196,9.824 -11.996,26.606c2,6.445 3.207,13.14 4.871,19.699c1.672,6.574 6.664,6.031 11.781,5.492c4.969,-0.52 8.902,-2.57 7.789,-7.969c-3.055,-14.847 -4.281,-30.316 -12.445,-43.828Zm-133.582,-99.476c1.636,9.726 4.371,19.304 4.59,28.941c0.253,11.398 8.234,10.367 15.16,11.742c9.023,1.781 7.785,-5.578 9.047,-10.473c1.371,-5.363 2.535,-10.789 3.437,-16.238c0.481,-2.941 1.094,-6.969 -2.777,-7.785c-9.235,-1.953 -16.156,-12.551 -29.457,-6.187Zm-105.16,100.304c4.441,-1.187 5.668,-1.41 6.816,-1.847c5.355,-2.067 7.023,-7.141 7.734,-11.809c0.965,-6.215 -5.066,-5.387 -8.765,-6.773c-6.907,-2.598 -13.852,-5.122 -20.625,-8.04c-5.492,-2.363 -9.496,-1.507 -12.141,4.094c-3.629,7.692 -8.191,15.367 -5.551,24.211c0.922,3.07 5.52,2.645 8.336,2.488c9.196,-0.535 18.344,-1.734 24.196,-2.324Zm1.285,-58.722c2.457,4.886 7.765,5.789 11.769,8.476c6.114,4.106 11.953,8.633 18.965,11.301c4.551,1.723 8.543,0.887 12.086,-1.926c3.82,-3.027 1.383,-6.68 0.324,-10.047c-9.297,-29.781 -18.504,-32.254 -41.875,-11.14c-0.785,0.699 -0.863,2.195 -1.269,3.336Zm160.625,255.554c8.32,7.321 15.054,13.598 22.168,19.41c8.445,6.914 10.527,6.071 19.828,-3.125c6.203,-6.121 6.433,-10.57 -0.332,-16.503c-6.254,-5.493 -11.371,-12.274 -17.164,-18.688c-8.403,6.48 -15.66,12.078 -24.5,18.906Zm-19.559,62.133c-10.426,-8.441 -20.914,-16.937 -31.703,-25.668c-10.926,12.352 -14.91,25.352 -12.191,40.363c1.004,5.551 3.386,9.004 9.961,8.082c14.281,-1.992 28.894,-3.16 33.933,-22.777Zm130.07,-124.246c-11.332,3.164 -15.242,9.387 -17.46,18.52c-10.684,43.89 -40.817,72.652 -77.602,95.296c-15.668,9.649 -26.598,21.805 -31.055,39.778c-1.722,6.918 -1.156,13.613 0.957,20.07c5.758,17.578 12.188,34.938 17.86,52.547c3.031,9.414 6.117,19.644 -2.223,27.863c-5.992,5.906 -28.32,3.418 -36.723,-3.777c-15.746,-13.473 -22.953,-32.16 -28.453,-51.246c-2.597,-9 -5.273,-17.641 -9.672,-25.953c-11.816,-22.383 -10.3,-67.578 16.684,-90.641c15.328,-13.094 32.852,-22.035 49.684,-32.363c37.371,-22.922 58.8,-56.121 63.937,-99.516c3.875,-32.785 -4.828,-61.937 -24.285,-89.019c-21.973,-30.594 -52.379,-41.774 -87.887,-44.118c-14.812,-0.976 -28.75,2.086 -39.426,12.457c-4.718,4.582 -10.347,2.715 -14.98,6.004c-18.469,13.11 -30.012,29.664 -33.824,52.711c-4.41,26.606 0.347,51.676 7.386,76.832c1.993,7.145 4.235,14.223 5.985,21.41c3.508,14.356 0.582,22.747 -9.723,29.012c-11.82,7.176 -27.379,7.539 -36.18,-1.246c-11.886,-11.855 -23.128,-23.664 -28.253,-41.391c-8.579,-29.683 -11.325,-59.484 -10.563,-89.98c0.859,-34.379 17.035,-62.098 40.281,-85.234c25.551,-25.407 58.313,-36.192 93.965,-39.563c20.383,-1.918 40.617,-3.828 61.11,-2.004c4.351,0.379 7.953,0.449 11.914,3.266c16.109,11.418 32.746,21.703 50.832,30.23c13.754,6.489 21.621,21.617 31.214,33.735c5.25,6.625 6.063,16.625 15.473,20.156c1.602,0.598 1.797,2.644 2,4.621c2.328,22.23 8.969,43.457 16.609,64.254c3.965,10.816 -1.031,20.336 -1.437,30.43c-0.449,11.086 -2.953,22.097 -4.832,33.089c-1.473,8.688 -1.934,16.942 8.687,23.77Zm-93.539,338.367c-3.195,-4.113 -6.382,-8.222 -10.261,-13.222c-1.508,9.273 4.336,11.281 10.261,13.222Zm1.532,-47.16c3.953,12.059 2.894,23.324 10.828,32.52c7.992,-22.391 6.886,-26.2 -10.828,-32.52Zm-24.399,49.23c-4.91,-16.976 -5,-30.554 -1.75,-43.941c2.731,-11.25 14.453,-19.355 24.801,-18.277c16.613,1.73 28.055,10.965 28.301,24.261c0.238,13.04 -1.711,26.024 -7.602,37.891c-4.465,9.004 -11.621,14.191 -22.379,13.012c-10.769,-1.18 -18.175,-6.684 -21.371,-12.946Z" style="fill:#6b4e31;"/>
    <path id="q5" d="M1011.06,606.371c-2.16,-18.84 -6.492,-35.664 -11.235,-51.543c-14.804,-49.586 -9.465,-95.375 18.051,-139.168c12.848,-20.457 25.718,-41.058 35.27,-63.375c18.328,-42.851 24.539,-85.84 0.558,-128.937c-1.801,-3.243 -2.972,-6.844 -4.281,-10.321c-15.105,-40.414 -41.535,-70.601 -81.789,-86.839c-37.887,-15.27 -76.785,-20.817 -115.465,-2.364c-52.266,24.926 -91.992,93.504 -87.516,151.469c1.84,23.711 8.766,46.281 21.317,66.789c1.859,3.016 3.59,7.063 8.316,5.781c3.211,-0.875 4.848,-3.679 5.637,-6.843c2.23,-9.024 5.562,-18.204 1.402,-27.297c-4.007,-8.782 -4.414,-18.121 -5.164,-27.293c-3.359,-41.242 5.688,-79.274 33.34,-110.965c22.016,-25.242 50.723,-38.848 84.297,-34.563c41.609,5.317 74.508,25.461 93.77,64.711c15.433,31.457 20.667,64.11 8.351,97.114c-10.379,27.8 -24.648,54.015 -40.953,79.086c-41.758,64.222 -41.688,130.296 -6.555,197.164c8.367,15.902 23.071,23.207 42.649,27.394Zm52.172,-419.23c7.203,15.777 14.98,31.32 21.507,47.375c16.325,40.109 9.032,79.015 -6.816,117.449c-11.656,28.289 -28.941,53.437 -44.099,79.75c-26.901,46.672 -24.303,93.469 -2.456,140.773c2.07,4.473 5.293,8.492 5.078,13.774c-1.183,28.75 -14.179,36.343 -35.578,33.324c-24.933,-3.508 -45.07,-15.738 -56.629,-37.848c-37.832,-72.336 -34.5,-142.726 11.555,-211.054c15.941,-23.657 28.746,-49.34 38.754,-76.18c6.75,-18.098 6.074,-36.938 0.914,-55.047c-11.098,-38.914 -31.633,-69.769 -73.359,-81.84c-29.789,-8.617 -52.34,3.024 -71.016,24.508c-24.383,28.066 -33.559,61.645 -32.285,98.313c0.262,7.402 1.769,14.679 4.226,21.832c4.84,14.07 3.391,28.175 -1.289,42.054c-4.156,12.293 -12.671,19.176 -25.468,21.649c-12.672,2.433 -21.496,-2.785 -29.024,-12.223c-22.375,-28.035 -25.527,-60.988 -24.804,-95.07c1.042,-49.379 26.136,-86.895 59.105,-120.547c35.246,-35.965 78.578,-43.449 126.777,-38.094c33.231,3.695 62.149,16.383 89.602,33.945c20.449,13.09 35.516,30.879 45.305,53.157Zm-19.364,528.898c5.559,10.34 16.914,16.91 24.231,14.465c6.863,-2.301 12.566,-12.465 11.875,-21.188c-0.746,-9.66 -9.156,-17.171 -20.653,-16.91c-5.836,0.133 -13.597,-1.992 -17.296,3.239c-4.692,6.617 -0.649,14.179 1.843,20.394Zm-22.906,7.512c-15.312,-25.219 9.784,-56.422 34.809,-54.024c10.949,1.043 22.386,5.895 31.82,11.84c19.09,12.028 20.492,36.266 4.211,52.637c-20.527,20.633 -59.672,16.07 -70.84,-10.453Z" style="fill:#6b4e31;"/>
    <path id="q4" d="M1576.94,2122.81c9.395,-10.215 14.004,-23.645 24.469,-33.833c9.418,-9.179 8.027,-26.699 16.215,-38.707c1.711,-2.519 2.078,-6 3.926,-8.371c7.547,-9.621 13.953,-20.062 29.066,-20.089c10.617,-0.008 20.184,-9.368 31.867,-5.309c18.446,-11.059 38.528,-6.223 58.114,-5.887c8.125,0.133 15.898,2.211 23.324,5.68c10.851,5.07 19.738,14.637 33.472,13.312c4.012,-0.39 7.329,4.477 9.727,8.02c3.449,5.098 6.535,10.508 9.191,16.051c8.477,17.726 4.09,46.004 -9.113,60.715c-16.773,18.695 -32.203,38.558 -50.707,55.746c-19.066,17.707 -37.301,36.312 -56.125,54.304c-4.598,4.383 -12.613,16.071 -16.039,22.442c-14.836,27.496 -14.375,57.004 -12.258,86.816c0.258,3.617 1.938,7.621 -1.351,10.547c-6.348,5.621 -3.934,12.277 -3,19.016c1.539,10.941 3.754,21.761 4.875,32.839c1.343,13.18 6.195,26.618 17.316,35.981c2.402,2.027 5.652,3.277 8.664,2.035c3.277,-1.359 3.524,-4.57 3.137,-7.887c-1.07,-9.207 -1.543,-18.507 -3.051,-27.636c-3.828,-23.203 -8.57,-46.141 -8.676,-69.938c-0.144,-28.754 7.95,-53.297 29.063,-73.379c12.168,-11.586 25.32,-21.785 38.726,-31.847c26.243,-19.711 52.758,-39.207 73.993,-64.692c8.339,-9.988 17.132,-19.679 19.414,-33.226c4.757,-28.239 3.671,-56.11 -10.454,-81.469c-12.824,-23.027 -29.328,-44.387 -56.273,-51.031c-17.937,-4.411 -35.547,-10.508 -53.926,-13.098c-4.902,-0.691 -9.914,-1.441 -14.812,-1.191c-51.981,2.695 -98.758,17.711 -134.719,57.757c-17.863,19.899 -24.047,42.895 -17.152,68.922c1.882,7.106 4.234,14.375 13.097,17.407Zm79.399,147.171c-1.313,-8.168 0.519,-16.152 2.297,-23.933c1.5,-6.582 0.773,-15.817 12.703,-14.426c2.281,0.258 4.988,-5.117 7.855,-7.477c25.344,-20.812 47.145,-45.105 69.27,-69.156c12.14,-13.191 27.019,-23.91 38.883,-37.312c14.804,-16.739 24.402,-35.907 15.597,-59.43c-1.515,-4.039 -2.215,-6.108 -7.418,-3.304c-5.429,2.933 -7.304,-3.165 -9.269,-6.602c-10.27,-17.946 -28.106,-22.489 -46.223,-26.992c-39.93,-9.926 -69.773,7.359 -95.98,34.906c-2.094,2.203 -4.75,6.29 -6.563,5.984c-17.437,-2.894 -16.16,11.63 -18.641,20.801c-5.468,20.215 -12.574,38.641 -30.472,51.695c-4.778,3.485 -8.043,4.219 -13.086,2.922c-25.629,-6.578 -33.504,-17.543 -31.121,-44.316c4.398,-49.469 31.984,-84.395 70.742,-112.274c6.918,-4.976 14.859,-5.781 22.957,-6.414c11.133,-0.859 22.84,-0.031 33.246,-3.297c26.379,-8.25 52.481,-3.921 78.836,-1.578c26.684,2.375 50.074,14.094 73.316,25.688c8.067,4.035 12.672,13.969 23.332,15.484c3.239,0.469 3.852,5.945 4.985,9.492c1.098,3.371 1.238,8.418 6.078,8.051c12.469,-0.949 11.691,7.332 12.57,15.703c1.278,12.122 0.274,24.943 8.559,35.446c3.207,4.071 0.687,8.484 0.055,12.531c-3.747,23.879 -7.942,47.691 -11.793,71.554c-0.586,3.629 0.324,8.141 -3.907,9.563c-4.281,1.445 -6.332,-1.965 -8.261,-5.488c-2.907,-5.317 -8.379,-5.375 -9.582,-0.102c-4.957,21.938 -25.836,28.363 -39.317,41.856c-8.734,8.75 -18.82,16.152 -27.023,25.539c-1.61,1.84 -3.446,4.504 -5.461,4.812c-13.836,2.098 -20.758,13.141 -28.324,22.496c-8.887,10.965 -16.727,22.969 -23.684,35.278c-9.156,16.218 -11.43,33.82 -6.242,52.031c0.168,0.582 0.887,1.058 0.906,1.605c1.219,25.297 2.91,50.594 3.293,75.907c0.16,10.003 -13.535,19.351 -24.176,18.222c-12.172,-1.301 -20.726,-8.129 -26.109,-18.683c-12.84,-25.227 -21.918,-51.903 -19.449,-80.383c1.711,-19.789 0.785,-39.617 2.984,-59.344c0.688,-6.152 0.629,-12.23 3.945,-17.75c1.043,1.406 2.071,2.848 3.098,4.281c3.313,-2.996 5.395,-6.211 1.691,-10.988c-1.82,2.637 -3.457,5.02 -5.097,7.402Zm78.402,312.84c-2.758,0.446 -5.176,0.492 -7.355,1.231c-6.868,2.316 -13.649,4.902 -21.086,7.609c13.742,6.809 17.113,5.715 28.441,-8.84Zm-47.629,-28.719c1.942,6.547 3.613,13.196 9.551,17.637c7.195,5.403 13.867,5.531 19.879,-1.148c11.449,-12.699 23.609,-25.192 23.437,-44.168c-0.043,-4.598 4.493,-9.727 -1.277,-13.582c-6.625,-4.442 -13.086,-10.324 -21.922,-8.153c-19.75,4.848 -34.601,29.914 -29.668,49.414Zm15.871,-61.593c13.875,-3.032 25.145,-6.117 32.887,7.09c1.625,2.793 6.43,3.562 9.414,5.746c10.539,7.718 16.891,17.566 15.805,31.324c-1.344,16.941 -5.43,33.34 -13.699,47.945c-8.52,15.055 -22.403,22.465 -40.403,21.164c-17.543,-1.261 -29.383,-10.25 -34.375,-26.613c-5.679,-18.645 -5.887,-37.773 -0.742,-56.836c4.711,-17.449 15.699,-27.691 31.113,-29.82Z" style="fill:#6b4e31;"/>
    <path id="q3" d="M3484.48,820.953c0.563,3.789 1.075,6.817 1.458,9.86c0.476,3.882 0.449,7.91 -4.543,8.468c-4,0.438 -4.297,-3.707 -5.688,-6.23c-0.891,-1.61 -1.676,-3.406 -1.957,-5.203c-2.281,-15.196 -12.125,-25.125 -22.988,-34.828c-31.047,-27.758 -66.918,-40.79 -108.723,-40.329c-88.726,0.981 -163.328,32.622 -221.101,100.512c-18.411,21.633 -35.922,44.481 -42.247,73.563c-5.421,24.961 -2.789,48.148 13.09,68.804c10.043,13.075 20.422,15.735 36.074,10.02c13.938,-5.086 24.668,-14.57 32.743,-26.512c15.285,-22.578 29.965,-45.574 44.457,-68.668c28.621,-45.613 66.297,-78.09 121.386,-86.898c31.137,-4.973 59.778,3.515 81.129,23.871c20.77,19.769 38.012,44.472 47.446,72.68c13.597,40.66 16.718,81.566 -2.899,121.386c-21.328,43.281 -54.824,75.188 -97.969,95.641c-49.265,23.348 -102.472,27.844 -156.285,26.738c-33.476,-0.695 -66.922,-1.719 -99.777,6.969c-25.918,6.859 -47.426,19.48 -64.625,40.883c-20.719,25.797 -33.336,55.101 -41.902,86.3c-6.336,23.11 -6.004,46.688 2.199,69.672c1.644,4.594 2.504,10.125 8.504,11.051c5.605,0.867 6.742,-4.758 9.301,-7.863c12.414,-15.063 19.812,-32.902 27.289,-50.645c14.742,-35.004 37.777,-60.863 76.488,-69.25c16.348,-3.539 32.812,-6.523 49.258,-9.597c3.015,-0.567 6.23,-0.864 9.246,-0.469c14.09,1.848 28.148,3.902 42.203,6.039c21.883,3.336 42.906,0.973 64.187,-5.719c34.817,-10.957 66.43,-28.203 96.329,-48.179c28.804,-19.258 57.164,-40.055 78.152,-68.231c30.652,-41.156 53.785,-85.984 63.629,-137.168c7.633,-39.648 12.031,-78.695 -6.918,-116.48c-7.164,-14.313 -15.649,-27.961 -19.094,-43.918c-0.57,-2.668 -1.809,-6.082 -7.852,-6.27Zm29.985,230.586c-27.356,63.871 -67.055,111.367 -122.215,146.738c-34.621,22.2 -69.277,43.461 -108.766,56.036c-18.582,5.914 -37.121,9.453 -56.703,7.64c-14.168,-1.312 -28.445,-2.082 -42.668,-2.082c-30.121,0.004 -56.039,12.5 -77.008,32.551c-29.25,27.984 -52.957,60.601 -69.562,97.965c-3.516,7.918 -8.004,15.445 -12.535,22.851c-13.805,22.598 -33.781,18.59 -49.961,9.375c-6.547,-3.722 -11.094,-9.953 -9.805,-18.625c0.918,-6.133 -0.148,-13.23 2.621,-18.293c9.535,-17.433 7.184,-35.683 6.672,-54.218c-0.894,-32.477 9.531,-62.278 24.328,-90.715c3.434,-6.598 7.239,-12.992 10.895,-19.473c17.351,-30.75 44.64,-49.633 76.754,-61.457c17.984,-6.625 37.715,-6.691 56.742,-8.754c28.945,-3.14 58.082,-3.574 87.219,-2.621c2.457,0.082 5.086,0.109 7.379,-0.633c38.218,-12.344 78.539,-19.703 112.109,-43.515c26.562,-18.844 47.082,-43.809 65.305,-70.563c8.281,-12.16 8.812,-27.035 11.582,-40.836c3.379,-16.851 6.117,-33.726 3.242,-51.578c-5.184,-32.144 -25.777,-49.191 -53.258,-61.027c-41.793,-18.004 -74.906,0.718 -105.254,26.402c-23.238,19.668 -41.109,44.352 -58.902,69.121c-19.766,27.547 -37.34,57.25 -66.559,76.871c-18.609,12.504 -37.137,4.133 -39.582,-18.562c-0.551,-5.125 0.957,-9.707 -5.523,-13.992c-35.141,-23.231 -48.125,-62.094 -36.184,-102.442c6.66,-22.539 18.996,-41.43 33.985,-59.172c41.046,-48.574 92.042,-82.988 151.441,-104.285c26.16,-9.375 54.133,-13.348 82.215,-13.887c11.144,-0.207 22.328,-0.043 33.449,0.637c38.523,2.344 69.383,20.875 96.832,46.449c2.531,2.364 4.227,7.383 8.688,5.399c11.199,-4.973 14.894,3.879 18.296,10.469c13.672,26.46 27.668,52.851 39.43,80.183c12.934,30.07 12.422,61.988 4.856,93.266c-4.09,16.898 -7.801,33.804 -11.043,50.859c-1.868,9.789 -5.852,18.965 -8.512,23.918Zm-599.067,479.473c2.407,8.418 -2.976,15.101 -7.695,22.195c-1.723,2.582 -1.129,5.996 0.762,8.773c2.754,4.059 6.465,2.641 9.93,1.489c11.25,-3.739 20.839,-10.684 30.562,-17.082c4.371,-2.891 7.742,-8.11 10.148,-12.973c4.254,-8.586 -0.218,-15.328 -6.253,-21.414c-4.192,-4.223 -8.582,-7.648 -14.567,-4.02c-9.113,5.528 -16.16,13.254 -22.887,23.032Zm-35.265,36.543c13.683,-22.676 26.254,-46.098 43.801,-66.235c4.101,-4.699 8.32,-9.312 14.214,-11.656c6.766,-2.687 14.36,-3.004 18.825,3c6.191,8.348 11.363,17.676 15.617,27.184c3.488,7.785 1.695,16.062 -3.852,22.679c-5.914,7.051 -8.8,15.114 -12.465,23.371c-8.238,18.547 -19.246,37.657 -44.437,38.317c-3.664,0.094 -7.277,1.308 -10.957,1.691c-19.094,1.981 -30.598,-11.953 -24.684,-29.976c0.957,-2.903 2.606,-5.582 3.938,-8.375Zm85.332,-424.606c0.121,1.168 0.652,2.364 0.258,2.996c-1.703,2.7 -4.141,4.266 -7.407,2.836c-0.609,-0.273 -1.062,-2.449 -1.019,-2.476c2.637,-1.184 5.332,-2.231 8.168,-3.356Z" style="fill:#6b4e31;"/>
    <path id="q2" d="M1762.35,2826.19c24.066,0.653 44.777,7.024 64.136,17.278c27.508,14.566 41.575,40.105 51.766,67.894c16.301,44.426 7.621,85.047 -19.629,122.989c-11.668,16.246 -24.656,31.003 -39.348,44.445c-25.48,23.32 -46.351,49.715 -57.976,82.941c-5.817,16.625 -10.68,33.071 -8.946,50.821c0.629,6.457 1.489,12.754 -7.242,14.363c-9.144,1.687 -16.281,-2.555 -17.711,-11.91c-2.082,-13.61 -1.367,-27.25 2.539,-40.594c12.477,-42.688 34.461,-79.363 67.789,-109.219c23.723,-21.269 44.708,-44.621 55.774,-75.539c7.351,-20.5 10.094,-40.937 3.887,-61.976c-4.7,-15.969 -8.864,-31.973 -18.801,-46.176c-22.762,-32.555 -61.371,-46.09 -97.926,-31.32c-35.434,14.308 -64.629,36.597 -82.48,71.57c-10.899,21.34 -8.848,41.957 3.714,61.781c7.731,12.195 10.348,12.816 24.633,9.199c5.938,-1.5 11.567,-5.09 18.047,-3.402c4.445,1.164 8.102,3.844 9.129,8.41c1.063,4.727 -3.281,6.613 -6.441,7.84c-24.719,9.531 -49.368,12.641 -66.848,-15.258c-16.855,-26.91 -19.512,-53.281 -3.012,-80.519c15.969,-26.364 35.571,-49.321 64.492,-62.559c7.875,-3.609 15.887,-7.215 23.165,-11.855c12.128,-7.743 25.253,-9.778 37.289,-9.204Zm-34.539,458.543c9.953,0.313 17.058,5.2 16.027,11.344c-1.027,6.027 -5.922,7.426 -11.078,7.652c-7.864,0.34 -17.442,-5.812 -16.899,-10.953c0.746,-7.078 5.578,-8.902 11.95,-8.043Z" style="fill:#6b4e31;"/>
    <path id="q1" d="M1316.89,1522.58c-2.254,7.094 -4.633,14.156 -6.692,21.309c-0.828,2.867 -2.863,6.679 -0.297,8.808c7.016,5.813 3.192,11.926 1.934,18.43c-2.863,14.766 -3.754,29.691 1.512,44.141c5.043,13.82 11.836,15.121 21.086,3.933c10.109,-12.23 15.394,-26.672 18.211,-42.242c6.39,-35.277 22.488,-66.109 48.609,-90.109c21.406,-19.676 46.312,-35.332 74.516,-44.422c29.734,-9.582 58.468,-8.52 86.082,7.762c25.187,14.851 36.902,38.082 33.621,66.976c-2.914,25.613 -17.993,44.274 -34.278,62.301c-23.515,26.023 -52.23,45.461 -81.425,64.433c-24.594,15.981 -45.407,36.532 -63.122,59.801c-27.914,36.664 -31.984,80.055 -30.875,123.875c0.446,17.696 4.317,35.918 15.18,51.129c3.008,4.207 6.34,10.141 13.465,6.387c5.73,-3.024 10.492,-6.785 9.148,-14.457c-2.914,-16.656 -0.933,-33.445 -0.523,-50.113c1.098,-44.895 16.324,-83.477 52.367,-112.395c16.508,-13.246 33.356,-25.777 52.117,-35.738c19.75,-10.481 38.778,-22.282 56.379,-36.133c31.11,-24.453 46.223,-58.508 51.801,-96.024c6.332,-42.578 -7.371,-79.8 -40.863,-107.902c-17.281,-14.48 -37.457,-24.808 -59.793,-29.015c-67.531,-12.719 -128.031,-0.938 -176.426,52.07c-18.148,19.883 -34.48,40.695 -41.734,67.195Zm51.019,50.348c-3.191,19.422 -9.601,37.281 -21.137,53.277c-5.878,8.145 -12.32,14.11 -22.988,12.492c-10.797,-1.632 -17.738,-8.336 -21.773,-18.144c-4.309,-10.488 -5.418,-21.598 -5.606,-32.809c-1.187,-69.836 30.063,-122.519 82.625,-166.812c55.492,-46.754 168.762,-49.785 228.215,3.754c31.344,28.242 45.098,64.324 43.527,104.652c-1.773,45.551 -20.418,85.207 -55.25,116.125c-12.16,10.785 -26.468,18.394 -40.089,26.957c-21.02,13.187 -42.715,25.301 -62.504,40.395c-7.442,5.675 -13.973,12.234 -20.77,18.593c-25.816,24.176 -33.687,55.664 -36.695,89.008c-1.219,13.524 -2.86,27.258 0.871,40.75c1.117,4.047 0.32,8.906 4.734,11.602c8.231,5.035 1.391,11.136 0.91,16.589c-0.757,8.481 -6.14,9.774 -13.367,7.04c-0.996,-0.383 -2.625,-0.094 -3.543,0.503c-6.414,4.239 -12.937,7.997 -20.707,3.637c-8.847,-4.961 -15.984,-12.14 -20.668,-20.906c-10.746,-20.086 -13.918,-42.211 -13.73,-64.598c0.117,-14.203 2.879,-28.347 3.824,-42.562c2.883,-43.489 24.836,-77.199 54.734,-106.625c24.485,-24.086 54.137,-41.422 82.036,-61.004c21.519,-15.098 38.754,-34.52 56.062,-53.875c9.395,-10.488 12.973,-23.934 15.703,-37.34c4.352,-21.457 -8.453,-43.453 -28.16,-53.398c-33.336,-16.829 -66.008,-10.821 -96.504,4.66c-31.742,16.109 -58.758,39.043 -75.875,71.711c-6.137,11.703 -8.949,24.453 -13.875,36.328Zm54.289,417.887c-5.008,8.808 -4.851,19.878 -1.523,30.722c3.211,10.449 9.961,12.301 17.812,5.223c10.27,-9.235 17.328,-20.766 21.414,-33.91c3,-9.66 0.508,-18.414 -6.781,-25.391c-8.105,-7.773 -16.148,-6.34 -22.219,3.176c-3.687,5.789 -6.328,11.949 -8.703,20.18Zm3.813,51.703c-10.024,-4.368 -17.957,-10.34 -19.024,-22.684c-1.156,-13.172 1.098,-25.871 3.731,-38.633c1.105,-5.355 3.051,-10.406 2.547,-16.289c-0.946,-10.84 3.433,-15.797 14.097,-16.547c25.239,-1.758 52.567,19.723 43.133,49.754c-4.762,15.141 -12.34,28.082 -23.859,39.078c-6.176,5.895 -12.848,6.68 -20.625,5.321Z" style="fill:#6b4e31;"/>
</svg>
